<?xml version="1.0" encoding="utf-8"?>
<!-- Generator: Adobe Illustrator 23.0.1, SVG Export Plug-In . SVG Version: 6.00 Build 0)  -->
<svg version="1.1" xmlns="http://www.w3.org/2000/svg" xmlns:xlink="http://www.w3.org/1999/xlink" x="0px" y="0px"
	 viewBox="0 0 287 286" style="enable-background:new 0 0 287 286;" xml:space="preserve">
<style type="text/css">
	.st0{fill:#040D21;}
	.st1{fill:#0D1B38;}
	.st2{fill:#E1E9FB;}
	.st3{fill:#86A8F0;}
	.st4{fill:#142953;}
</style>
<g id="bg">
	<rect x="-1" y="0.3" class="st0" width="288" height="285.7"/>
</g>
<g id="circle">
	<path class="st1" d="M143.5,19.5c-62.8,0-113.7,50.7-113.7,113.3c0,38.5,19.3,72.5,48.7,93l4.7-2.3c0,0,7.7-7.1,10.6-8.4
		c2.9-1.3,12.5-3.3,12.5-3.3s0.6-8.6,0.1-15.2C96,183.9,95,164.3,95,164.3s-5.4-6-8.9-19.1s-4.8-21.2,0.3-25.7
		c-6.3-35,0.7-49.4,6-56.8c6.9-11.4,19.6-22.2,44.1-26s36,8.8,36,8.8c11.2,4.4,16.7,9.6,21.5,23c13,16.9,8.5,46.2,7.6,55.2
		c6.7,1,8.4,7.8,6.5,17.7s-6.6,16.9-9.3,21.5c-2.6,4.6-5.8,6.8-5.8,6.8s-1.7,16.2-8.4,24.3c-2,13.3,2.3,18.8,2.3,18.8
		s9.8,0.8,13.2,2.3c2.5,1.1,8,6.1,10.8,8.7c28-20.6,46.1-53.8,46.1-91.1C257.2,70.2,206.3,19.5,143.5,19.5z"/>
</g>
<g id="face">
	<path class="st2" d="M181.3,193.9c-0.2,1.7-1.2,12.5,2.3,18.6c3.7,6.6,15.7,11.5,15.8,11.6l0.1,0.1h0.1l0.1,0.1
		c0.5,0.7,0.4,2.3-0.4,4.7c-1,2.9-4.4,10.3-12.8,17.3c-9.6,7-21,10.9-35.8,11.6l-5.6,0.2c0,0-27.1-4.6-36.3-11.8
		c-8.7-6.8-11.9-14.4-12.9-17.3c-0.9-2.6-1-4.2-0.3-4.8c0.1-0.1,0.2-0.2,0.3-0.2c0.1,0,11-3,13.4-7.8c1-2,1.7-5.5,1.5-11.3
		c-0.1-3.8-0.5-7.9-0.6-8.8c-4.6-6.4-8.1-13-10.3-25.1c-0.4-2.4-1-5-1.5-7.7c-0.2-1.1-0.4-2.1-0.7-3.2c-0.6-0.7-1.4-1.7-1.9-2.2
		c-0.9-0.9-3.7-8.2-4.5-10.1c-0.8-1.9-2.9-11.2-3.3-12.9c-0.5-1.7-0.4-4.2-0.4-6.1c0-1.9,1.3-4.6,1.3-4.6h1.5
		c-0.8-2.9-2.7-30.3-1.9-39.8c0.8-9.8,4.6-15,4.8-15.2c0.2-0.3,0.5-0.4,0.8-0.3c1.2-2.3,2.2-4.4,2.2-4.4s4.5-9.7,15.4-15.9
		c10.8-6.2,22.7-8.8,36.6-8.3c13.9,0.5,20.2,6.8,26.7,11.4c15.9,7.6,14.1,17.7,14.7,18.6c0.6,0.9,6.4,3.9,8.3,18.2
		c1.9,14.3,0.8,31.5-0.7,40.8c1.1-1.4,2.2-2.4,3.3-2.4c3.6,0,3.9,5.6,3.9,5.6s0.6,7.9-0.9,12.1c-1.5,4.1-4.6,12.5-5.8,13.7
		c-1.2,1.2-4,6-4.8,6.5c-0.5,0.3-1.7,0.9-2.6,1.3c-0.6,4.2-1.3,8-1.9,11C187.1,184.6,184.2,190,181.3,193.9z"/>
</g>
<g id="hair">
	<path class="st3" d="M192.4,139.3c0,0,1.7-5.3,4.6-10c1.5-9.3,2.6-26.6,0.7-40.9c-1.9-14.3-7.7-17.3-8.3-18.2
		c-0.6-0.9,1.2-11-14.7-18.6c-6.5-4.6-12.8-10.9-26.7-11.4s-25.8,2.1-36.6,8.3S96,64.4,96,64.4s-1.1,3.3-2.9,6
		c-1.7,2.7-5.2,9-4,31.2c1,18.6,2,22,2.5,23.2s3,6.6,3,6.6s0.7-13.9,2-21.8c0.6-5.6-1.6-12.3,1-21.3s7.5-9.2,9.2-9.1s9,2.1,15.7,2
		c6.7-0.1,9.7-1.2,12.7-0.2s3.2,2.7,8.9,2.5c5.6-0.2,15.4-2.5,21.2-5.3s9.8-5.9,13.8-2.1c3.5,3.2,8.4,9.4,9.7,18s0.9,10.2,1.1,14.2
		C190.1,112.4,192.9,126.4,192.4,139.3z"/>
</g>
<g id="Ebene_1">
	<path class="st4" d="M153.8,61.5c-0.4,0-0.7-0.3-0.8-0.7c-0.9-4.8-4.5-9.1-10-12.4c-4.9-2.8-11-4.6-16.3-4.6
		c-0.5,0-0.8-0.4-0.8-0.8c0-0.5,0.4-0.8,0.8-0.8c5.6,0,12,1.9,17.1,4.8c5.9,3.5,9.8,8.3,10.8,13.5c0.1,0.5-0.2,0.9-0.7,1
		C153.9,61.5,153.9,61.5,153.8,61.5z"/>
	<path class="st4" d="M141.5,83.8c-0.3,0-0.6-0.2-0.8-0.5c-0.2-0.4,0-0.9,0.4-1.1c0.1,0,11.2-4.9,12.1-17.6c0-0.5,0.4-0.8,0.9-0.8
		s0.8,0.4,0.8,0.9c-0.5,7.2-4,12-6.9,14.7c-3.1,3-6.1,4.3-6.2,4.3C141.7,83.8,141.6,83.8,141.5,83.8z"/>
	<path class="st4" d="M152.3,82.7c-0.3,0-0.6-0.1-0.7-0.4c-0.2-0.4-0.1-0.9,0.3-1.1c0.1-0.1,10.2-6.5,9.3-19.4
		c-0.9-12.6-15.2-19.2-24.6-20.5c-0.5-0.1-0.8-0.5-0.7-0.9c0.1-0.5,0.5-0.8,0.9-0.7c5.5,0.8,11.5,3,16,6.1
		c6.1,4.2,9.6,9.7,10.1,15.9c0.5,7.3-2.3,12.6-4.7,15.8c-2.6,3.4-5.3,5.1-5.4,5.2C152.6,82.7,152.5,82.7,152.3,82.7z"/>
	<path class="st4" d="M167.8,57.3c-0.3,0-0.6-0.2-0.8-0.5c-3.8-9.2-17.5-14-25.5-14.5c-0.5,0-0.8-0.4-0.8-0.9s0.4-0.8,0.9-0.8
		c4.7,0.2,10.3,1.8,15,4.2c4.1,2.1,9.5,5.7,11.9,11.3c0.2,0.4,0,0.9-0.5,1.1C168,57.3,167.9,57.3,167.8,57.3z"/>
	<path class="st4" d="M162.1,79.7c-0.2,0-0.5-0.1-0.7-0.3c-0.3-0.4-0.2-0.9,0.1-1.2c0.1-0.1,7.7-6.4,6.4-17.8
		c-0.1-0.5,0.3-0.9,0.7-0.9c0.5-0.1,0.9,0.3,0.9,0.7c1.5,12.4-6.7,19.1-7,19.3C162.5,79.6,162.3,79.7,162.1,79.7z"/>
	<path class="st4" d="M170,76.2c-0.2,0-0.5-0.1-0.6-0.3c-0.3-0.3-0.3-0.9,0.1-1.2c0.3-0.3,6.9-6.5,3.3-18.6
		c-1.6-5.2-5.4-9.2-11.4-11.9c-4.6-2.1-9.4-2.8-11.6-2.9c-0.5,0-0.8-0.4-0.8-0.9c0-0.4,0.4-0.8,0.8-0.8l0,0c0.2,0,20,1.2,24.4,16.1
		c3.9,13.2-3.4,20-3.8,20.3C170.4,76.1,170.2,76.2,170,76.2z"/>
	<path class="st4" d="M136.7,81.8c-0.3,0-0.6-0.2-0.7-0.4c-0.2-0.4-0.1-0.9,0.3-1.1c0.1-0.1,8.7-5.1,9.4-14.6
		c0.3-4.3-1.3-8.5-4.6-12c-4.8-5.1-12.5-7.7-21.6-7.5c-0.5,0-0.8-0.4-0.9-0.8c0-0.5,0.4-0.8,0.8-0.9c9.6-0.3,17.7,2.6,22.9,8
		c3.6,3.8,5.4,8.5,5.1,13.3c-0.8,10.5-9.8,15.7-10.2,15.9C137,81.8,136.9,81.8,136.7,81.8z"/>
	<path class="st4" d="M136.3,58.1c-0.2,0-0.4-0.1-0.6-0.2c-8.4-8-22.9-7.9-23-7.9l0,0c-0.5,0-0.8-0.4-0.8-0.8c0-0.5,0.4-0.8,0.8-0.8
		c0.6,0,15.3-0.1,24.2,8.4c0.3,0.3,0.3,0.8,0,1.2C136.8,58,136.6,58.1,136.3,58.1z"/>
	<path class="st4" d="M141.6,77.7c-0.1,0-0.2,0-0.2,0c-0.4-0.1-0.7-0.6-0.6-1c0-0.1,2.5-8.5-2.6-15.8c-0.3-0.4-0.2-0.9,0.2-1.2
		s0.9-0.2,1.2,0.2c5.6,8,2.9,16.9,2.8,17.3C142.3,77.4,142,77.7,141.6,77.7z"/>
	<path class="st4" d="M134.6,79.1c-0.1,0-0.2,0-0.3-0.1c-0.4-0.2-0.6-0.6-0.5-1.1c0.2-0.4,3.5-9.6-5.8-17.2c-9.7-7.8-19.9-8-20-8
		c-0.5,0-0.8-0.4-0.8-0.8c0-0.5,0.4-0.8,0.8-0.8l0,0c0.4,0,11,0.2,21.1,8.4c5.4,4.4,6.8,9.3,7.1,12.7c0.3,3.7-0.7,6.3-0.8,6.4
		C135.3,78.9,135,79.1,134.6,79.1z"/>
	<path class="st4" d="M117.8,63.4c-0.2,0-0.3,0-0.5-0.1c-1.8-1.2-3.4-2.2-4.8-3c-3.3-2-5.7-3.4-8-5.9c-0.3-0.3-0.3-0.9,0-1.2
		s0.9-0.3,1.2,0c2.2,2.3,4.4,3.7,7.7,5.7c1.4,0.9,3,1.8,4.9,3c0.4,0.3,0.5,0.8,0.2,1.2C118.4,63.3,118.1,63.4,117.8,63.4z"/>
	<path class="st4" d="M130.5,80.6c-0.5,0-0.8-0.4-0.8-0.8c0-0.1-0.1-8.1-8.5-14c-0.4-0.3-0.5-0.8-0.2-1.2c0.3-0.4,0.8-0.5,1.2-0.2
		c9.1,6.4,9.2,15,9.2,15.3C131.4,80.3,131,80.6,130.5,80.6z"/>
	<path class="st4" d="M125.2,81.1c-0.3,0-0.6-0.1-0.7-0.4c0,0-3-5-9.1-9.7c-1.4-1.1-2.8-2.1-4.2-3c-4.8-3.3-9-6.2-9.9-11.7
		c-0.1-0.5,0.2-0.9,0.7-1s0.9,0.2,1,0.7c0.8,4.8,4.5,7.4,9.2,10.6c1.4,1,2.8,2,4.3,3.1c6.4,5,9.4,10,9.5,10.2
		c0.2,0.4,0.1,0.9-0.3,1.1C125.5,81.1,125.4,81.1,125.2,81.1z"/>
	<path class="st4" d="M104.8,72.2c-0.2,0-0.5-0.1-0.6-0.3c-2.7-3.3-4.5-7.2-5.3-11.5c-0.1-0.5,0.2-0.9,0.7-1s0.9,0.2,1,0.7
		c0.8,4.1,2.4,7.7,5,10.8c0.3,0.4,0.2,0.9-0.1,1.2C105.2,72.1,105,72.2,104.8,72.2z"/>
	<path class="st4" d="M118.9,81.1c-0.1,0-0.1,0-0.2,0c-0.3-0.1-6.3-1.4-11.8-6.4c-0.3-0.3-0.4-0.8-0.1-1.2c0.3-0.3,0.8-0.4,1.2-0.1
		c5.2,4.6,11,6,11,6c0.5,0.1,0.7,0.5,0.6,1C119.7,80.9,119.3,81.1,118.9,81.1z"/>
	<path class="st4" d="M110.6,80.6c-0.2,0-3.9,0-7.6-2c-3.5-1.8-7.7-5.7-7.9-13.9c0-0.5,0.4-0.8,0.8-0.8l0,0c0.5,0,0.8,0.4,0.8,0.8
		C97,78.8,110.1,79,110.6,79s0.8,0.4,0.8,0.8C111.5,80.3,111.1,80.6,110.6,80.6z"/>
	<path class="st4" d="M177.6,74.5c-0.1,0-0.2,0-0.3-0.1c-0.4-0.2-0.6-0.7-0.5-1.1c0,0,1.7-4.2,1.4-9.3c-0.4-6.8-3.9-12-10.4-15.7
		c-0.4-0.2-0.5-0.7-0.3-1.1c0.2-0.4,0.7-0.5,1.1-0.3c8.8,4.9,11,12,11.2,17.1c0.3,5.5-1.5,9.8-1.5,9.9
		C178.2,74.3,177.9,74.5,177.6,74.5z"/>
	<path class="st4" d="M184.1,73.1L184.1,73.1c-0.5,0-0.9-0.4-0.8-0.9c0-0.1,0.4-7.9-6.8-15.1c-0.3-0.3-0.3-0.9,0-1.2s0.9-0.3,1.2,0
		c7.8,7.8,7.3,16.1,7.3,16.4C184.9,72.8,184.6,73.1,184.1,73.1z"/>
	<path class="st4" d="M189.5,71.1C189.4,71.1,189.4,71.1,189.5,71.1c-0.5,0-0.9-0.4-0.8-0.9c0,0,0.2-2.9-1.8-6.7
		c-3.4-6.4-10.3-10.5-15.5-12.8c-0.4-0.2-0.6-0.7-0.4-1.1c0.2-0.4,0.7-0.6,1.1-0.4c5.5,2.4,12.8,6.7,16.3,13.6
		c2.2,4.2,2,7.4,1.9,7.5C190.3,70.7,189.9,71.1,189.5,71.1z"/>
	<path class="st4" d="M144.1,218.7c-4.2,0-8.3-0.7-11.4-2c-6.4-2.7-10.9-7.6-18.3-15.7l-0.4-0.4c-7.3-8-11.3-14.5-14.1-29.5
		c-0.4-2.4-1-5-1.5-7.7c-2.2-11-4.7-23.5-4.4-33.9c0.2-8.9,1-13.9,1.4-16.8c0.2-1.4,0.3-2.4,0.4-3.2c0-0.8,0-1.9-0.1-3.3
		c-0.2-3.5-0.5-8.7,0.1-14c1-7.7,5.1-11.5,5.3-11.6c0.3-0.3,0.9-0.3,1.2,0.1c0.3,0.3,0.3,0.9-0.1,1.2c-1.3,1.2-4,5-4.7,10.6
		c-0.6,5.2-0.3,10.3-0.1,13.7c0.1,1.5,0.2,2.6,0.1,3.5c0,0.9-0.2,1.9-0.4,3.4c-0.5,3.1-1.2,7.8-1.4,16.6
		c-0.3,10.3,2.2,22.6,4.4,33.5c0.5,2.7,1.1,5.3,1.5,7.7c2.7,14.6,6.6,20.9,13.7,28.7l0.4,0.4c7.2,7.9,11.6,12.7,17.7,15.3
		c6.5,2.7,17.4,2.9,24.6-1.5c7.7-4.7,15.7-13.5,19.8-18.3c3.5-4.1,7.4-9.6,9.2-18.5c1.9-9.3,4-27,4.5-37.2
		c0.5-10.3-1.5-25.5-2.3-29.9c-0.3-1.4-0.4-3.3-0.5-5.5c-0.2-3.6-0.5-8.2-1.5-12.2c-2-7.5-5-12.9-8.6-15c-0.4-0.2-0.5-0.8-0.3-1.1
		c0.2-0.4,0.8-0.5,1.2-0.3c2.8,1.7,6.6,5.8,9.3,16c1.1,4.2,1.4,8.8,1.6,12.5c0.1,2.1,0.2,4,0.5,5.3c0.8,4.4,2.8,19.8,2.3,30.3
		c-0.5,10.2-2.6,28.1-4.5,37.5c-1.9,9.3-5.9,15-9.6,19.3c-5.1,6-12.7,14-20.2,18.6C154.7,217.6,149.3,218.7,144.1,218.7z"/>
	<path class="st4" d="M94.9,136.3c-0.4,0-0.8-0.3-0.8-0.7c-0.7-4.9-1.8-7.1-2.7-8.8c-0.5-0.9-0.8-1.7-1.1-2.6
		c-0.8-2.8-2.9-30-2.1-39.6c0.9-9.8,4.9-15.2,5-15.4c0.3-0.4,0.8-0.4,1.2-0.2c0.4,0.3,0.4,0.8,0.2,1.2c0,0.1-3.9,5.3-4.7,14.6
		c-0.9,9.9,1.4,36.7,2,39c0.2,0.8,0.5,1.4,1,2.3c0.9,1.8,2.1,4.2,2.9,9.3c0.1,0.5-0.3,0.9-0.7,0.9C95,136.3,95,136.3,94.9,136.3z"/>
	<path class="st4" d="M192.1,143.6H192c-0.5-0.1-0.8-0.5-0.7-1c1.2-7.3,3.2-10.6,4.4-12.5c0.4-0.7,0.8-1.2,0.8-1.6
		c0.4-1.9,2.1-23.4,0.7-36.7c-1.3-12.9-6.4-18.9-6.4-19c-0.3-0.3-0.3-0.9,0.1-1.2c0.4-0.3,0.9-0.3,1.2,0.1c0.1,0.1,1.4,1.6,2.9,4.9
		c1.4,3,3.2,8,3.9,15c1.4,13.5-0.4,35.3-0.8,37.2c-0.1,0.7-0.5,1.4-1.1,2.2c-1.1,1.8-3,4.9-4.2,11.9
		C192.9,143.4,192.5,143.6,192.1,143.6z"/>
	<path class="st4" d="M189.7,167.5c-0.1,0-0.1,0-0.2,0c-0.5,0-0.8-0.4-0.8-0.9s0.4-0.8,0.8-0.8l0,0c1.6,0,2.3-1,3.3-2.3
		c0.1-0.2,0.2-0.3,0.3-0.5c0.4-0.5,0.7-1,1-1.5c0.6-1,1.2-2.1,2.4-3.2c1.6-1.6,3.8-6.5,6-13c1.6-4.9,1.4-8.3,1.2-10.5
		c0-0.6-0.1-1.1-0.1-1.5c0-2.2-0.2-4.9-2-5.3c-1.9-0.4-3.9,1.8-3.9,1.8c-0.3,0.4-0.8,0.4-1.2,0.1c-0.4-0.3-0.4-0.8-0.1-1.2
		c0.1-0.1,2.6-3.1,5.6-2.4c3.3,0.8,3.3,5.1,3.3,6.9c0,0.4,0,0.9,0.1,1.4c0.2,2.4,0.4,5.9-1.3,11.1c-2.2,6.7-4.6,11.8-6.4,13.6
		c-1,1-1.6,2-2.1,2.9c-0.3,0.6-0.7,1.1-1.1,1.7c-0.1,0.1-0.2,0.3-0.3,0.5C193.2,165.8,192,167.5,189.7,167.5z"/>
	<path class="st4" d="M99,162.6c-0.2,0-0.4-0.1-0.6-0.2c-3.3-3.1-5.5-8.6-7.6-13.9c-1.3-3.3-1.8-5.9-2.2-8.1
		c-0.3-1.4-0.5-2.6-0.8-3.7c-1.3-4-1.5-7.6-0.7-10.7c0.4-1.5,1.1-2.4,2-2.8c1.3-0.5,2.4,0.2,2.5,0.3c0.4,0.3,0.5,0.8,0.2,1.2
		c-0.3,0.4-0.8,0.5-1.2,0.2c0,0-0.6-0.3-1-0.2c-0.4,0.2-0.8,0.7-1,1.6c-0.7,2.8-0.5,6.1,0.7,9.8c0.4,1.3,0.6,2.5,0.9,3.9
		c0.4,2.2,0.9,4.6,2.1,7.8c1.9,5,4.2,10.5,7.2,13.3c0.3,0.3,0.4,0.8,0,1.2C99.4,162.5,99.2,162.6,99,162.6z"/>
	<path class="st4" d="M150.4,258c-0.4,0-0.8-0.3-0.8-0.8s0.3-0.9,0.8-0.9c10.9-0.5,20.4-2.8,28.2-7c6.1-3.2,11-7.5,14.7-12.6
		c4.1-5.7,5.2-10.6,5.1-11.5c-0.2-0.3-0.2-0.7,0-1c0.3-0.4,0.8-0.4,1.2-0.1c0.7,0.6,0.6,2.2-0.2,4.8c-1,2.9-4.1,10.4-12.8,17.3
		C177.4,253.4,165.2,257.4,150.4,258C150.5,258,150.4,258,150.4,258z M198.5,225.4L198.5,225.4L198.5,225.4z"/>
	<path class="st4" d="M147.8,267.4c-0.4,0-0.8-0.3-0.8-0.8s0.3-0.9,0.8-0.9c0.7,0,1.5-0.1,2.3-0.1c9.9-0.5,24.8-1.2,37.6-9.4
		c0.4-0.2,0.9-0.1,1.2,0.3c0.2,0.4,0.1,0.9-0.3,1.2c-13.2,8.4-29,9.2-38.4,9.6C149.3,267.3,148.5,267.3,147.8,267.4L147.8,267.4z"/>
	<path class="st4" d="M191.8,255.1c-0.2,0-0.5-0.1-0.7-0.3c-0.3-0.4-0.2-0.9,0.1-1.2c7.5-5.9,11.5-12.5,13.6-17
		c2.5-5.4,2.8-9,2.7-9.6c-0.9-1.2-7.5-7.4-10-8.2c-2.7-0.9-11.2-1.1-11.3-1.1c-0.5,0-0.8-0.4-0.8-0.9s0.4-0.8,0.9-0.8
		c0.4,0,8.8,0.2,11.7,1.2c3,1,10.1,7.6,10.9,8.9c0.8,1.2-0.3,6.1-2.4,10.8c-2.1,4.8-6.4,11.8-14.3,18
		C192.1,255.1,192,255.1,191.8,255.1z"/>
	<path class="st4" d="M199,227.8c-0.1,0-0.1,0-0.2,0c-0.4-0.1-0.7-0.6-0.6-1c0,0,0.6-2.3-0.7-5.1c-0.2-0.4,0-0.9,0.4-1.1
		c0.4-0.2,0.9,0,1.1,0.4c1.5,3.4,0.8,6.1,0.8,6.2C199.7,227.5,199.4,227.8,199,227.8z"/>
	<path class="st4" d="M145.1,258.1L145.1,258.1c-14.9-0.6-27.1-4.6-36.3-11.8c-8.7-6.8-11.9-14.4-12.9-17.3c-0.9-2.7-1-4.3-0.3-4.9
		c0.4-0.3,0.9-0.2,1.2,0.1c0.2,0.3,0.2,0.7,0,1c-0.2,1,1,5.9,5.1,11.6c3.7,5.1,8.7,9.4,14.8,12.6c7.9,4.2,17.4,6.5,28.4,7
		c0.5,0,0.8,0.4,0.8,0.9C145.9,257.7,145.5,258.1,145.1,258.1z M96.7,225.4L96.7,225.4L96.7,225.4z"/>
	<path class="st4" d="M147.5,267.4C147.4,267.4,147.4,267.4,147.5,267.4c-0.8,0-1.5-0.1-2.3-0.1c-9.4-0.5-25.2-1.3-38.4-9.6
		c-0.4-0.2-0.5-0.8-0.3-1.2c0.2-0.4,0.8-0.5,1.2-0.3c12.8,8.1,27.7,8.9,37.6,9.4c0.8,0,1.6,0.1,2.3,0.1c0.5,0,0.8,0.4,0.8,0.9
		C148.3,267,147.9,267.4,147.5,267.4z"/>
	<path class="st4" d="M103.4,255.1c-0.2,0-0.4-0.1-0.5-0.2c-7.9-6.2-12.2-13.2-14.3-18c-2.1-4.6-3.2-9.6-2.4-10.8
		c0.9-1.4,7.9-8,10.9-8.9c2.9-1,12.2-1.2,12.6-1.2l0,0c0.5,0,0.8,0.4,0.8,0.8c0,0.5-0.4,0.8-0.8,0.9c-0.1,0-9.4,0.2-12.1,1.1
		c-2.6,0.8-9.2,7-10,8.2c-0.1,0.6,0.2,4.3,2.7,9.6c2.1,4.5,6.1,11.1,13.6,17c0.4,0.3,0.4,0.8,0.1,1.2
		C103.9,255,103.7,255.1,103.4,255.1z"/>
	<path class="st4" d="M96.2,227.8c-0.4,0-0.7-0.2-0.8-0.6c0-0.1-0.7-2.8,0.8-6.2c0.2-0.4,0.7-0.6,1.1-0.4c0.4,0.2,0.6,0.7,0.4,1.1
		c-1.3,2.8-0.7,5.1-0.7,5.1c0.1,0.4-0.1,0.9-0.6,1C96.3,227.7,96.3,227.8,96.2,227.8z"/>
	<path class="st4" d="M199.1,225.5c-0.1,0-0.2,0-0.3-0.1s-3.2-1.3-6.8-3.4c-4.9-2.9-8.2-5.9-9.9-8.9s-2.6-7.3-2.7-12.8
		c-0.1-4,0.3-7.2,0.4-7.3c0.1-0.5,0.5-0.8,0.9-0.7c0.5,0.1,0.8,0.5,0.7,0.9c0,0.1-1.6,12.5,2.1,19.1c3.7,6.6,15.7,11.6,15.8,11.6
		c0.4,0.2,0.6,0.7,0.5,1.1C199.7,225.3,199.4,225.5,199.1,225.5z"/>
	<path class="st4" d="M96.2,225.5c-0.4,0-0.7-0.2-0.8-0.6c-0.1-0.4,0.1-0.9,0.6-1c0.1,0,11-3.2,13.4-8c1-2,1.5-6.1,1.3-11.9
		c-0.1-4.5-0.6-8.3-0.6-8.4c-0.1-0.5,0.3-0.9,0.7-0.9c0.5-0.1,0.9,0.3,0.9,0.7c0.1,0.6,1.9,15.9-0.8,21.3c-2.8,5.5-14,8.7-14.5,8.9
		C96.3,225.5,96.2,225.5,96.2,225.5z"/>
	<path class="st4" d="M254.5,248.6c-0.1,0-0.3,0-0.4-0.1c-1.8-0.9-4.4-2.1-7.6-3.6c-0.4-0.2-0.6-0.7-0.4-1.1
		c0.2-0.4,0.7-0.6,1.1-0.4c3.2,1.5,5.8,2.7,7.6,3.7c0.4,0.2,0.6,0.7,0.4,1.1C255.1,248.5,254.8,248.6,254.5,248.6z"/>
	<path class="st4" d="M242.7,243c-0.1,0-0.2,0-0.4-0.1c-14.5-6.7-34.2-15.4-34.4-15.5c-0.4-0.2-0.6-0.7-0.4-1.1
		c0.2-0.4,0.7-0.6,1.1-0.4c0.2,0.1,19.9,8.8,34.4,15.5c0.4,0.2,0.6,0.7,0.4,1.1C243.3,242.8,243,243,242.7,243z"/>
	<path class="st4" d="M36.5,249.9c-0.3,0-0.6-0.2-0.8-0.5c-0.2-0.4,0-0.9,0.4-1.1c1.9-0.9,4.5-2.2,7.9-3.7c0.4-0.2,0.9,0,1.1,0.4
		c0.2,0.4,0,0.9-0.4,1.1c-3.4,1.6-6.1,2.8-7.9,3.7C36.7,249.9,36.6,249.9,36.5,249.9z"/>
	<path class="st4" d="M48.2,244.4c-0.3,0-0.6-0.2-0.8-0.5c-0.2-0.4,0-0.9,0.4-1.1c15.7-7.1,38.5-16.9,38.7-17c0.4-0.2,0.9,0,1.1,0.4
		s0,0.9-0.4,1.1c-0.2,0.1-23,9.9-38.7,17C48.5,244.4,48.3,244.4,48.2,244.4z"/>
	<path class="st4" d="M192,156.6c-0.1,0-0.1,0-0.2,0c-0.2,0-0.6-0.2-0.9-0.6c-0.7-1,0.3-2.2,1.3-3.5c0.6-0.7,1.2-1.6,1.4-2.2
		c0.2-0.9-0.1-1.7-0.5-2.6c-0.2-0.6-0.5-1.3-0.6-1.9c-0.1-1.5,1.2-4.2,2.7-6.8c0-0.1,5.2-8.5,7.6-8.2c1.7,0.2,2.2,2.2,2.3,3.4
		c0,0.3-0.2,0.6-0.6,0.7c-0.4,0-0.6-0.2-0.7-0.6c0-0.6-0.3-2.2-1.2-2.3l0,0c-0.9,0-4.6,4.6-6.4,7.6c-0.8,1.4-2.7,4.7-2.6,6
		c0,0.5,0.3,1,0.5,1.6c0.4,1,0.8,2.1,0.6,3.3c-0.2,0.9-0.9,1.8-1.6,2.7c-0.4,0.6-1.4,1.8-1.2,2.1l0,0c0.2,0,0.8-0.5,1.2-0.8
		c0.5-0.5,1.1-0.9,1.7-1.1c0.8-0.3,1.3-1.2,1.9-3.4c0.1-0.3,0.4-0.5,0.8-0.5c0.3,0.1,0.5,0.4,0.5,0.8c-0.6,2.3-1.2,3.8-2.7,4.3
		c-0.3,0.1-0.8,0.5-1.3,0.9C193.3,156.1,192.7,156.6,192,156.6z"/>
	<path class="st4" d="M197.1,145.8c-0.3,0-0.6-0.2-0.6-0.5c-0.5-3-1.8-4-1.8-4.1c-0.3-0.2-0.3-0.6-0.1-0.9c0.2-0.3,0.6-0.3,0.9-0.1
		c0.1,0.1,1.8,1.3,2.3,4.9C197.8,145.4,197.6,145.7,197.1,145.8C197.2,145.8,197.2,145.8,197.1,145.8z"/>
	<path class="st4" d="M200.2,149.1c-0.1,0-0.1,0-0.2,0c-0.3-0.1-0.5-0.4-0.4-0.8c2.1-7.8-1.2-13.1-1.2-13.1
		c-0.2-0.3-0.1-0.7,0.2-0.9s0.7-0.1,0.9,0.2c0.1,0.2,3.6,5.8,1.4,14.1C200.8,148.9,200.5,149.1,200.2,149.1z"/>
	<path class="st4" d="M195.4,158.4c-0.2,0-0.4-0.1-0.5-0.3c-0.2-0.3-0.1-0.7,0.2-0.9c1-0.7,1.7-2,1.8-2c0.2-0.3,0.6-0.4,0.9-0.2
		c0.3,0.2,0.4,0.6,0.2,0.9c0,0.1-0.9,1.6-2.1,2.4C195.7,158.4,195.5,158.4,195.4,158.4z"/>
	<path class="st4" d="M95.1,138.8c-0.3,0-0.5-0.2-0.6-0.4c-3.6-9.9-6.9-9.5-6.9-9.5c-0.3,0.1-0.7-0.1-0.7-0.5
		c-0.1-0.3,0.1-0.7,0.5-0.8c0.4-0.1,4.4-0.7,8.4,10.3c0.1,0.3,0,0.7-0.4,0.8C95.3,138.8,95.2,138.8,95.1,138.8z"/>
	<path class="st4" d="M91.8,149.3c-0.3,0-0.5-0.2-0.6-0.5c-2.3-9.2,0.6-16.4,0.7-16.7s0.5-0.5,0.8-0.3c0.3,0.1,0.5,0.5,0.4,0.8
		c0,0.1-2.8,7.2-0.6,15.9c0.1,0.3-0.1,0.7-0.5,0.8C91.9,149.3,91.8,149.3,91.8,149.3z"/>
	<path class="st4" d="M93.7,145.4C93.6,145.4,93.6,145.4,93.7,145.4c-0.4,0-0.7-0.4-0.6-0.7c0.2-2.1,1.7-4.9,1.7-5
		c0.2-0.3,0.5-0.4,0.8-0.3c0.3,0.2,0.4,0.5,0.3,0.8c0,0-1.4,2.7-1.6,4.6C94.2,145.2,94,145.4,93.7,145.4z"/>
	<path class="st4" d="M97.3,154.1c-0.1,0-0.2,0-0.2-0.1c0,0-1.2-0.5-2.4-1.8c-0.2-0.3-0.2-0.6,0-0.9c0.3-0.2,0.7-0.2,0.9,0
		c1,1.1,2,1.5,2,1.5c0.3,0.1,0.5,0.5,0.3,0.8C97.8,153.9,97.6,154.1,97.3,154.1z"/>
	<path class="st4" d="M136,147.5c-0.3,0-0.6-0.3-0.6-0.6c0-1.4,0-3,0-4.5c0-2.9,0.1-5.7-0.2-7.5c-0.4-2.6-2.9-5.1-3-5.1
		c-0.2-0.2-0.3-0.6,0-0.9c0.2-0.2,0.6-0.3,0.9,0c0.1,0.1,2.9,2.8,3.3,5.9c0.3,1.9,0.2,4.7,0.2,7.7c0,1.5,0,3.1,0,4.5
		C136.7,147.2,136.4,147.5,136,147.5C136.1,147.5,136.1,147.5,136,147.5z"/>
	<path class="st4" d="M152.1,137.5c-0.2,0-0.5-0.1-0.6-0.4c-0.1-0.3,0-0.7,0.3-0.8c0,0,1.7-0.7,3.9-1.9c0.3-0.2,0.6-0.4,1-0.6
		c2.3-1.3,5.8-3.3,9.9-2.7c4.6,0.7,8.2,3.7,8.3,3.8c0.3,0.2,0.3,0.6,0.1,0.9s-0.6,0.3-0.9,0.1c0,0-3.4-2.9-7.7-3.5
		c-3.7-0.5-6.8,1.3-9.1,2.6c-0.4,0.2-0.7,0.4-1,0.6c-2.3,1.2-3.9,1.9-4,1.9C152.3,137.4,152.2,137.5,152.1,137.5z"/>
	<path class="st4" d="M153,134.4c-0.1,0-0.2-0.1-0.3-0.2c-0.1-0.2-0.1-0.4,0.1-0.6c0.1-0.1,2.9-2.4,5.2-3.1
		c2.2-0.7,9.4-1.8,14.4-0.5c2.5,0.7,4.4,2.3,4.4,2.4c0.2,0.2,0.2,0.4,0,0.6c-0.2,0.2-0.4,0.2-0.6,0c0,0-1.8-1.6-4.1-2.2
		c-4.9-1.2-11.8-0.1-13.9,0.5c-2.2,0.7-4.9,2.9-4.9,2.9C153.2,134.4,153.1,134.4,153,134.4z"/>
	<path class="st4" d="M130,137.1c-0.1,0-0.2,0-0.3-0.1s-2.8-1.4-4.2-2.3c-0.1-0.1-0.3-0.2-0.5-0.4c-1.4-1-4-3-8.2-2.8
		c-4.5,0.2-6.9,1.9-8.3,2.9l-0.2,0.2c-0.3,0.2-0.7,0.1-0.9-0.1c-0.2-0.3-0.1-0.7,0.1-0.9l0.2-0.2c1.4-1,4.1-2.9,9-3.1
		c4.6-0.2,7.4,1.9,9,3.1c0.2,0.1,0.3,0.2,0.5,0.3c1.2,0.9,4,2.2,4,2.2c0.3,0.2,0.4,0.5,0.3,0.8C130.5,136.9,130.3,137.1,130,137.1z"
		/>
	<path class="st4" d="M129,133.4c-0.1,0-0.2,0-0.3-0.1c0,0-1.8-1.4-3.5-2c-1.8-0.6-6.7-1.3-11.9-0.7c-5,0.6-6.1,2-6.1,2
		c-0.1,0.2-0.4,0.2-0.6,0.1c-0.2-0.1-0.2-0.4-0.1-0.6c0.1-0.2,1.4-1.7,6.7-2.3c5.3-0.6,10.4,0.1,12.3,0.8c1.8,0.6,3.7,2.1,3.8,2.2
		c0.2,0.1,0.2,0.4,0.1,0.6C129.2,133.4,129.1,133.4,129,133.4z"/>
	<path class="st4" d="M140.2,171.5c-0.1,0-0.3,0-0.5,0c-1.7-0.2-2.6-1.1-3.7-2.3c-0.4-0.4-0.8-0.8-1.3-1.2c-1.7-1.5-3.1-1.9-3.1-1.9
		c-0.3-0.1-0.5-0.4-0.4-0.7s0.4-0.5,0.7-0.4c0.1,0,1.7,0.5,3.6,2.2c0.5,0.4,0.9,0.9,1.3,1.3c1,1,1.8,1.8,3,1.9
		c1.4,0.1,2.2-0.6,3.3-1.7c0.2-0.2,0.5-0.4,0.7-0.7l0.2-0.2c1.5-1.4,2.8-2.5,4.9-2.7c0.3,0,0.6,0.2,0.6,0.5s-0.2,0.6-0.5,0.6
		c-1.7,0.1-2.8,1.2-4.2,2.4l-0.2,0.2c-0.2,0.2-0.5,0.4-0.7,0.7C142.9,170.5,141.9,171.5,140.2,171.5z"/>
	<path class="st4" d="M130,165.8h-0.1c-0.1,0-2.2-0.4-2.6-2.6c-0.4-2.1,0.5-4.1,2.4-5.5c0.3-0.2,0.6-0.1,0.8,0.1
		c0.2,0.3,0.1,0.6-0.1,0.8c-1.5,1.1-2.2,2.7-2,4.4c0.2,1.4,1.5,1.6,1.6,1.7c0.3,0.1,0.5,0.4,0.5,0.7
		C130.5,165.6,130.3,165.8,130,165.8z"/>
	<path class="st4" d="M150.8,166.3c-0.3,0-0.5-0.2-0.6-0.5s0.1-0.6,0.4-0.7c0,0,1.7-0.4,2.1-1.7c0.4-1.6-0.2-3.3-1.7-4.6
		c-0.2-0.2-0.3-0.6-0.1-0.8s0.6-0.3,0.8-0.1c1.8,1.5,2.6,3.7,2.1,5.8c-0.5,1.9-2.9,2.5-3,2.5C150.9,166.3,150.8,166.3,150.8,166.3z"
		/>
	<path class="st4" d="M140.7,185.1c-2.8,0-6.7-0.9-10.4-1.8c-0.8-0.2-1.6-0.4-2.3-0.6c-4.4-1-6.4-2.1-6.5-2.1
		c-0.3-0.2-0.4-0.5-0.3-0.8c0.2-0.3,0.5-0.4,0.8-0.3c0,0,2,1.1,6.2,2c0.8,0.2,1.6,0.4,2.3,0.6c3.7,0.9,7.5,1.8,10.1,1.8
		c3.5,0,6.7-0.2,10.2-0.8c3.6-0.6,8.6-1.6,12-3.6c0.3-0.2,0.7-0.1,0.8,0.2c0.2,0.3,0.1,0.7-0.2,0.8c-3.5,2.1-8.7,3.2-12.4,3.8
		C147.6,184.9,144.3,185.1,140.7,185.1z"/>
	<path class="st4" d="M141.1,181.7c-0.1,0-0.1,0-0.2,0c-0.7-0.1-3.6-0.9-3.9-1c-0.3-0.1-0.5-0.4-0.4-0.7s0.4-0.5,0.7-0.4
		c1.3,0.4,3.3,0.9,3.8,1c0.4,0,2.3-0.5,3.9-1c0.3-0.1,0.7,0.1,0.8,0.4c0.1,0.3-0.1,0.7-0.4,0.8C144.3,181,141.9,181.7,141.1,181.7z"
		/>
	<path class="st4" d="M142.1,190c-5.5,0-9.8-1.9-10.1-2.1c-0.3-0.1-0.4-0.5-0.3-0.8c0.1-0.3,0.5-0.4,0.8-0.3c0.1,0,9.1,4.1,17.5,0.3
		c0.3-0.1,0.7,0,0.8,0.3s0,0.7-0.3,0.8C147.7,189.5,144.8,190,142.1,190z"/>
	<path class="st4" d="M161.5,132.6c0,0-2,2.5,0.6,5c0.4,0.3,3.6,0.8,5.4,0.3c1.1-0.3,2.9-2.3,1.5-5.2
		C167.2,130.7,161.9,132.2,161.5,132.6z"/>
	<path class="st4" d="M115,131.3c0,0-1,1.2-0.8,3.4c0.2,1.2,1.2,2.5,1.8,2.8c0.3,0.2,4.3,0.4,5.5-0.2c1.2-0.7,2-2.8,1.1-4.8
		C120.2,130.7,116.9,130.8,115,131.3z"/>
	<path class="st4" d="M177.6,120.6c-2-0.6-6-0.8-6-0.8l2.6,1.1c-1.9-0.4-4.1-0.2-5.7,0.1c-2.6,0.4-11.5,1.8-11.8,2
		c-0.3,0.1-3.2,1.8-3.2,1.8l1.1-1.4c0,0-1.3,0.4-1.7,0.6c-0.5,0.2-2.2,1.8-2.2,1.8l0.7-1.6c-2.4,1.8-3.3,4.4-3.3,4.4l1.2-0.7
		l-0.6,0.9l1.8-1l-0.8,0.9c0,0,0.7-0.1,0.9-0.1s1.9-1,1.9-1l-1,1c0,0,2.8-0.2,9.1-1.4c6.4-1.3,14-1.6,16.3-1.5c3.5,0.3,8,2.4,8,2.4
		C182.4,123,178.7,121,177.6,120.6z"/>
	<path class="st4" d="M182.9,127.8c-0.5-0.2-3.2-0.8-3.2-0.8s1.7,1.3,2.7,1.6s3.1,0.8,3.1,0.8S183.4,128,182.9,127.8z"/>
	<path class="st4" d="M104.7,120.6c1.8-0.6,5.4-0.9,5.4-0.9l-2.3,1.1c1.7-0.4,3.7-0.3,5.2,0c2.3,0.4,10.5,1.6,10.8,1.7
		s2.9,1.7,2.9,1.7l-1-1.4c0,0,1.2,0.4,1.6,0.6s2,1.8,2,1.8l-0.7-1.5c2.2,1.8,3.1,4.3,3.1,4.3l-1.1-0.6l0.5,0.9l-1.7-1l0.7,0.9
		c0,0-0.7-0.1-0.8-0.1s-1.8-0.9-1.8-0.9l0.9,1c0,0-2.5-0.1-8.3-1.3c-5.8-1.1-12.7-1.8-14.7-1.6c-3.2,0.4-6.9,2.7-6.9,2.7
		C100.7,122.8,103.6,121,104.7,120.6z"/>
	<path class="st4" d="M100.7,127.7c0.5-0.2,2.9-0.9,2.9-0.9s-1.5,1.3-2.4,1.7c-0.9,0.3-2.8,0.9-2.8,0.9S100.2,127.9,100.7,127.7z"/>
</g>
</svg>
