<svg width="287" height="286" viewBox="0 0 287 286" fill="none" xmlns="http://www.w3.org/2000/svg">
<circle cx="144" cy="133" r="125" fill="#FDFDFD"/>
<path d="M192.417 139.293C192.417 139.293 194.131 133.979 196.986 129.332C198.51 120.034 199.558 102.768 197.652 88.4454C195.747 74.1225 189.941 71.1796 189.37 70.2301C188.798 69.2806 190.606 59.2248 174.71 51.6372C168.235 47.0841 161.952 40.7263 148.053 40.2544C134.154 39.7825 122.255 42.3422 111.403 48.5084C100.552 54.6745 95.9797 64.4471 95.9797 64.4471C95.9797 64.4471 94.8374 67.7676 93.124 70.4246C91.4106 73.0815 87.8892 79.4364 89.1261 101.636C90.1737 120.229 91.1265 123.643 91.6001 124.879C92.0736 126.114 94.5504 131.52 94.5504 131.52C94.5504 131.52 95.2163 117.669 96.5508 109.701C97.122 104.104 94.9321 97.3686 97.5037 88.3568C100.075 79.3449 105.023 79.1561 106.736 79.2505C108.45 79.3449 115.78 81.3383 122.444 81.2439C129.108 81.1496 132.153 80.0113 135.106 81.0552C138.057 82.0991 138.344 83.7121 143.96 83.5205C149.577 83.3317 159.384 81.0552 165.19 78.2066C170.996 75.3609 174.994 72.3236 178.994 76.1188C182.516 79.3449 187.372 85.5111 188.704 94.1425C190.035 102.774 189.562 104.293 189.846 108.371C190.133 112.447 192.894 126.392 192.417 139.293Z" fill="#7CBAD8"/>
<path d="M143.501 19.4623C80.708 19.4623 29.8057 70.1872 29.8057 132.761C29.8057 171.274 49.0892 205.296 78.5555 225.768L83.2967 223.486C83.2967 223.486 90.9912 216.402 93.9215 215.089C96.8517 213.774 106.452 211.803 106.452 211.803C106.452 211.803 107.037 203.186 106.598 196.614C96.0453 183.907 95.0207 164.338 95.0207 164.338C95.0207 164.338 89.5992 158.35 86.0806 145.208C82.562 132.066 81.2447 124.032 86.3734 119.505C80.0709 84.4558 87.1052 70.1415 92.3832 62.694C99.2712 51.3027 112.023 40.4947 136.495 36.6995C160.97 32.9014 172.473 45.4625 172.473 45.4625C183.684 49.8441 189.18 55.1007 194.016 68.4655C206.985 85.3338 202.491 114.689 201.612 123.646C208.354 124.619 210.016 131.434 208.159 141.367C206.302 151.3 201.515 158.307 198.877 162.883C196.24 167.459 193.112 169.698 193.112 169.698C193.112 169.698 191.45 185.86 184.708 194.04C182.754 207.379 187.053 212.83 187.053 212.83C187.053 212.83 196.822 213.608 200.244 215.166C202.72 216.293 208.216 221.25 211.061 223.898C239.046 203.26 257.19 170.127 257.19 132.767C257.196 70.1872 206.293 19.4623 143.501 19.4623Z" fill="#0D1B38"/>
<path d="M153.813 61.4929C153.42 61.4929 153.069 61.2155 152.989 60.8179C152.054 56.0675 148.506 51.6802 143.004 48.4599C138.131 45.6113 132.047 43.8839 126.723 43.841C126.261 43.8381 125.888 43.4606 125.891 42.9973C125.894 42.5368 126.264 42.1536 126.737 42.1679C132.34 42.2136 138.74 44.024 143.854 47.0156C149.778 50.479 153.609 55.2667 154.637 60.4919C154.725 60.9438 154.43 61.3842 153.974 61.4729C153.922 61.4872 153.867 61.4929 153.813 61.4929Z" fill="#49457B"/>
<path d="M141.489 83.7809C141.162 83.7809 140.852 83.5893 140.717 83.2718C140.537 82.8485 140.735 82.3566 141.159 82.1764C141.274 82.1278 152.315 77.2601 153.219 64.576C153.251 64.1155 153.652 63.7666 154.115 63.8009C154.577 63.8324 154.924 64.2328 154.892 64.6932C154.381 71.8661 150.863 76.6538 147.999 79.4051C144.902 82.3823 141.943 83.6579 141.819 83.7122C141.71 83.758 141.598 83.7809 141.489 83.7809Z" fill="#49457B"/>
<path d="M152.34 82.7369C152.059 82.7369 151.783 82.5968 151.625 82.3394C151.381 81.9476 151.505 81.4328 151.898 81.1897C152.001 81.1267 162.115 74.7232 161.211 61.7531C160.33 49.1176 146.017 42.5825 136.609 41.2726C136.15 41.2097 135.832 40.7864 135.895 40.3288C135.958 39.8712 136.385 39.5538 136.842 39.6167C142.326 40.3803 148.299 42.6626 152.822 45.7171C158.969 49.8727 162.451 55.3782 162.887 61.6358C163.398 68.9517 160.631 74.2599 158.22 77.4259C155.609 80.855 152.894 82.5424 152.779 82.6139C152.644 82.6969 152.492 82.7369 152.34 82.7369Z" fill="#49457B"/>
<path d="M167.812 57.3173C167.482 57.3173 167.172 57.1228 167.037 56.8025C163.215 47.6448 149.585 42.7571 141.578 42.3338C141.116 42.3109 140.76 41.9162 140.786 41.4558C140.808 40.9953 141.202 40.6378 141.667 40.6635C146.336 40.9095 151.953 42.4625 156.685 44.8163C160.812 46.8669 166.225 50.5019 168.587 56.159C168.765 56.5852 168.561 57.0742 168.134 57.2515C168.028 57.2973 167.919 57.3173 167.812 57.3173Z" fill="#49457B"/>
<path d="M162.11 79.6996C161.866 79.6996 161.622 79.5938 161.456 79.3879C161.166 79.0304 161.22 78.5042 161.579 78.2124C161.657 78.1495 169.325 71.786 167.973 60.366C167.919 59.9084 168.249 59.4909 168.708 59.4365C169.167 59.3822 169.586 59.7111 169.641 60.1687C171.105 72.5325 162.982 79.2306 162.635 79.5109C162.483 79.6396 162.297 79.6996 162.11 79.6996Z" fill="#49457B"/>
<path d="M169.951 76.1904C169.724 76.1904 169.494 76.0989 169.331 75.9158C169.021 75.5755 169.044 75.0464 169.385 74.7375C169.672 74.4744 176.268 68.251 172.669 56.1447C171.116 50.928 167.293 46.9097 161.304 44.2042C156.677 42.1164 151.864 41.3814 149.752 41.2784C149.29 41.2555 148.934 40.8637 148.954 40.4032C148.977 39.9571 149.347 39.6082 149.792 39.6082C149.806 39.6082 149.821 39.6082 149.835 39.6082C150.036 39.6167 169.845 40.7636 174.279 55.6699C178.191 68.8288 170.832 75.687 170.516 75.973C170.355 76.1189 170.155 76.1904 169.951 76.1904Z" fill="#49457B"/>
<path d="M136.728 81.7874C136.435 81.7874 136.151 81.6358 135.999 81.3641C135.769 80.9637 135.91 80.4518 136.315 80.2258C136.427 80.1629 144.982 75.1722 145.7 65.617C146.021 61.3327 144.377 57.0684 141.067 53.6078C136.22 48.5399 128.537 45.8801 119.428 46.1175C118.966 46.1289 118.578 45.7657 118.567 45.3024C118.555 44.8419 118.92 44.4558 119.385 44.4444C128.97 44.187 137.107 47.0355 142.284 52.4524C145.923 56.259 147.732 60.978 147.373 65.7399C146.586 76.2133 137.532 81.4585 137.144 81.6787C137.012 81.7531 136.869 81.7874 136.728 81.7874Z" fill="#49457B"/>
<path d="M136.346 58.0723C136.137 58.0723 135.93 57.9951 135.766 57.8407C127.366 49.8327 112.898 49.9127 112.749 49.9127C112.746 49.9127 112.743 49.9127 112.738 49.9127C112.278 49.9127 111.905 49.5467 111.899 49.0862C111.894 48.6257 112.264 48.2454 112.726 48.2396C113.349 48.2311 128.023 48.1424 136.926 56.6309C137.262 56.9512 137.273 57.4803 136.952 57.812C136.788 57.9837 136.567 58.0723 136.346 58.0723Z" fill="#49457B"/>
<path d="M141.621 77.6519C141.537 77.6519 141.454 77.6404 141.374 77.6147C140.932 77.4774 140.682 77.0112 140.82 76.5708C140.854 76.4564 143.331 68.0852 138.26 60.7464C137.996 60.366 138.093 59.8455 138.475 59.5824C138.857 59.3221 139.379 59.4165 139.643 59.7969C145.197 67.8335 142.539 76.6909 142.424 77.0627C142.31 77.4202 141.979 77.6519 141.621 77.6519Z" fill="#49457B"/>
<path d="M134.632 79.1334C134.532 79.1334 134.429 79.1162 134.328 79.0761C133.898 78.9103 133.682 78.4269 133.849 77.9951C134.001 77.6004 137.385 68.4026 128.011 60.8322C118.354 53.0358 108.07 52.8557 107.97 52.8528C107.508 52.8499 107.135 52.4724 107.138 52.0091C107.141 51.5515 107.517 51.1797 107.976 51.1797C107.979 51.1797 107.981 51.1797 107.984 51.1797C108.426 51.1825 118.959 51.3713 129.067 59.5309C134.463 63.8867 135.907 68.823 136.171 72.1978C136.455 75.8644 135.456 78.4841 135.413 78.5957C135.287 78.9303 134.968 79.1334 134.632 79.1334Z" fill="#49457B"/>
<path d="M117.831 63.3863C117.673 63.3863 117.516 63.3434 117.372 63.249C115.527 62.0478 113.942 61.0811 112.548 60.2317C109.264 58.2326 106.894 56.7854 104.517 54.3001C104.199 53.9654 104.21 53.4363 104.546 53.1189C104.882 52.8014 105.413 52.8129 105.731 53.1475C107.959 55.4755 110.131 56.7997 113.423 58.8046C114.829 59.6626 116.425 60.635 118.291 61.8505C118.678 62.1021 118.787 62.6198 118.534 63.0088C118.371 63.2547 118.104 63.3863 117.831 63.3863Z" fill="#49457B"/>
<path d="M130.539 80.6491C130.077 80.6491 129.701 80.2773 129.701 79.8169C129.701 79.7368 129.558 71.7117 121.197 65.8401C120.819 65.5741 120.727 65.0536 120.994 64.6761C121.261 64.2985 121.783 64.207 122.162 64.473C131.26 70.8622 131.374 79.4508 131.377 79.8112C131.38 80.2745 131.004 80.6491 130.539 80.6491Z" fill="#49457B"/>
<path d="M125.21 81.1239C124.923 81.1239 124.642 80.9752 124.487 80.7092C124.458 80.6606 121.528 75.7499 115.366 70.9852C113.939 69.8812 112.519 68.8945 111.144 67.9393C106.343 64.6017 102.193 61.7188 101.251 56.2362C101.174 55.7814 101.481 55.3496 101.937 55.2695C102.393 55.1894 102.827 55.4983 102.904 55.953C103.728 60.7464 107.425 63.3147 112.103 66.5665C113.495 67.5332 114.935 68.5342 116.393 69.6639C122.825 74.6374 125.81 79.651 125.933 79.8626C126.169 80.2602 126.034 80.7721 125.632 81.0066C125.5 81.0867 125.353 81.1239 125.21 81.1239Z" fill="#49457B"/>
<path d="M104.833 72.1664C104.589 72.1664 104.348 72.0605 104.185 71.8603C101.49 68.5771 99.7016 64.6989 98.8722 60.3403C98.7861 59.8855 99.0846 59.448 99.5409 59.3622C99.9973 59.2764 100.436 59.5738 100.522 60.0285C101.3 64.1126 102.968 67.7362 105.485 70.8021C105.777 71.1596 105.726 71.6859 105.367 71.9776C105.209 72.1034 105.02 72.1664 104.833 72.1664Z" fill="#49457B"/>
<path d="M118.927 81.1239C118.867 81.1239 118.804 81.1181 118.744 81.1038C118.488 81.0466 112.453 79.6567 106.962 74.7518C106.618 74.4429 106.589 73.9138 106.896 73.5706C107.206 73.2274 107.737 73.1988 108.081 73.5048C113.25 78.1237 119.054 79.4593 119.111 79.4708C119.564 79.5709 119.849 80.0199 119.745 80.4689C119.656 80.8607 119.309 81.1239 118.927 81.1239Z" fill="#49457B"/>
<path d="M110.645 80.6492C110.49 80.6492 106.779 80.6263 102.999 78.6701C99.4745 76.8454 95.2499 72.9472 95.1466 64.739C95.1408 64.2786 95.511 63.8982 95.976 63.8925C95.9789 63.8925 95.9817 63.8925 95.9875 63.8925C96.4467 63.8925 96.8198 64.2585 96.8255 64.719C97.0034 78.7788 110.091 78.9761 110.647 78.9761C111.109 78.9761 111.485 79.3508 111.485 79.8141C111.48 80.2774 111.107 80.6492 110.645 80.6492Z" fill="#49457B"/>
<path d="M177.568 74.483C177.462 74.483 177.353 74.463 177.247 74.4201C176.819 74.2428 176.615 73.7537 176.793 73.3276C176.81 73.2875 178.486 69.1749 178.194 64.0583C177.809 57.2858 174.319 52.0149 167.819 48.3941C167.414 48.1682 167.27 47.6591 167.497 47.2558C167.724 46.8526 168.235 46.7096 168.639 46.9355C177.427 51.8318 179.6 58.9332 179.873 64.0297C180.168 69.5123 178.417 73.788 178.343 73.9682C178.208 74.2885 177.895 74.483 177.568 74.483Z" fill="#49457B"/>
<path d="M184.137 73.1073C184.117 73.1073 184.1 73.1073 184.08 73.1045C183.618 73.073 183.267 72.6755 183.299 72.2179C183.305 72.1406 183.707 64.2785 176.486 57.0742C176.158 56.7481 176.158 56.219 176.486 55.893C176.813 55.5669 177.344 55.5669 177.671 55.893C185.457 63.6579 184.995 71.9776 184.972 72.3294C184.943 72.7698 184.576 73.1073 184.137 73.1073Z" fill="#49457B"/>
<path d="M189.469 71.071C189.446 71.071 189.423 71.071 189.4 71.0682C188.938 71.031 188.597 70.6277 188.631 70.1701C188.634 70.1415 188.82 67.2729 186.811 63.4749C183.428 57.0799 176.531 53.0101 171.342 50.7193C170.917 50.5334 170.728 50.0386 170.915 49.6153C171.101 49.192 171.598 49.0033 172.022 49.1892C177.498 51.603 184.777 55.9273 188.358 62.8113C190.545 67.0098 190.316 70.1673 190.304 70.2988C190.267 70.7393 189.9 71.071 189.469 71.071Z" fill="#49457B"/>
<path d="M144.12 218.653C139.893 218.653 135.832 217.912 132.738 216.622C126.303 213.942 121.835 209.043 114.43 200.924L114.02 200.475C106.681 192.432 102.7 185.96 99.9166 170.939C99.4689 168.526 98.9523 165.949 98.4041 163.223C96.1942 152.221 93.6887 139.751 93.9757 129.309C94.2225 120.386 94.9544 115.432 95.3906 112.472C95.5915 111.105 95.7379 110.116 95.7608 109.318C95.7809 108.563 95.712 107.43 95.6259 105.992C95.4164 102.534 95.1007 97.3115 95.7666 91.9462C96.7223 84.2528 100.861 80.4833 101.039 80.326C101.383 80.0171 101.914 80.0486 102.224 80.3918C102.531 80.735 102.502 81.2641 102.161 81.5701C100.832 82.7684 98.1343 86.5207 97.434 92.1492C96.7854 97.3601 97.0954 102.494 97.302 105.889C97.391 107.367 97.4627 108.531 97.4398 109.358C97.4168 110.259 97.2647 111.288 97.0523 112.713C96.5931 115.824 95.8986 120.526 95.6546 129.352C95.3734 139.605 97.8559 151.978 100.049 162.891C100.597 165.625 101.116 168.208 101.567 170.633C104.276 185.257 108.142 191.543 115.262 199.348L115.673 199.797C122.92 207.742 127.296 212.538 133.387 215.075C139.853 217.769 150.807 217.941 157.945 213.568C165.654 208.846 173.684 200.089 177.785 195.287C181.327 191.14 185.193 185.691 187.01 176.739C188.895 167.439 191.03 149.704 191.484 139.537C191.946 129.232 189.98 114.023 189.211 109.647C188.958 108.211 188.849 106.312 188.72 104.115C188.508 100.469 188.244 95.9301 187.179 91.9061C185.187 84.3757 182.151 79.0533 178.629 76.9197C178.233 76.6795 178.107 76.1647 178.348 75.77C178.589 75.3753 179.106 75.2495 179.502 75.4897C182.257 77.16 186.106 81.2869 188.801 91.4771C189.908 95.6642 190.178 100.295 190.393 104.018C190.517 106.163 190.626 108.017 190.861 109.358C191.639 113.782 193.625 129.169 193.157 139.611C192.698 149.85 190.551 167.705 188.651 177.071C186.76 186.395 182.742 192.06 179.06 196.37C173.971 202.328 166.331 210.393 158.82 214.992C154.653 217.552 149.266 218.653 144.12 218.653Z" fill="#49457B"/>
<path d="M94.9115 136.29C94.5011 136.29 94.1394 135.987 94.082 135.57C93.3932 130.705 92.2826 128.505 91.39 126.738C90.9394 125.846 90.5491 125.076 90.2965 124.141C89.5274 121.307 87.3548 94.1083 88.2014 84.5759C89.0682 74.7747 93.0517 69.3836 93.221 69.1576C93.4994 68.7887 94.0246 68.7143 94.3949 68.9917C94.7651 69.2692 94.8397 69.7925 94.5642 70.1615C94.5269 70.213 90.6955 75.4296 89.8718 84.7246C88.9936 94.6545 91.2924 121.41 91.9152 123.706C92.1247 124.476 92.4605 125.142 92.8881 125.986C93.7864 127.762 95.0177 130.196 95.7438 135.335C95.8098 135.793 95.4883 136.216 95.0291 136.279C94.989 136.288 94.9517 136.29 94.9115 136.29Z" fill="#49457B"/>
<path d="M192.142 143.646C192.099 143.646 192.053 143.644 192.01 143.635C191.553 143.563 191.24 143.134 191.312 142.677C192.489 135.332 194.501 132.083 195.703 130.141C196.145 129.426 196.464 128.912 196.547 128.506C196.932 126.592 198.648 105.111 197.296 91.7803C195.987 78.8731 190.907 72.8785 190.856 72.8213C190.554 72.4724 190.592 71.9433 190.942 71.643C191.292 71.3398 191.82 71.377 192.124 71.7259C192.182 71.7917 193.539 73.3647 195.063 76.6165C196.449 79.5795 198.255 84.5874 198.966 91.6144C200.335 105.099 198.585 126.892 198.192 128.837C198.051 129.538 197.646 130.193 197.133 131.025C195.996 132.861 194.096 135.936 192.971 142.949C192.902 143.355 192.546 143.646 192.142 143.646Z" fill="#49457B"/>
<path d="M189.687 167.479C189.633 167.479 189.578 167.479 189.524 167.476C189.061 167.462 188.697 167.075 188.711 166.612C188.726 166.16 189.099 165.803 189.549 165.803C189.558 165.803 189.569 165.803 189.578 165.803C191.136 165.851 191.917 164.765 192.83 163.503C192.945 163.346 193.057 163.189 193.174 163.034C193.544 162.534 193.846 162.028 194.164 161.49C194.733 160.529 195.375 159.439 196.546 158.249C198.105 156.665 200.395 151.7 202.525 145.291C204.152 140.383 203.911 137.023 203.75 134.797C203.707 134.22 203.673 133.719 203.673 133.267C203.673 131.031 203.449 128.411 201.704 128.011C199.767 127.565 197.806 129.83 197.786 129.853C197.488 130.204 196.957 130.247 196.604 129.95C196.251 129.652 196.205 129.126 196.503 128.774C196.61 128.648 199.138 125.706 202.08 126.383C205.349 127.136 205.349 131.434 205.349 133.27C205.349 133.662 205.383 134.134 205.423 134.68C205.593 137.037 205.851 140.598 204.117 145.82C201.882 152.555 199.5 157.64 197.746 159.425C196.719 160.469 196.156 161.421 195.611 162.342C195.284 162.894 194.948 163.463 194.523 164.032C194.411 164.181 194.302 164.333 194.193 164.484C193.22 165.82 192.02 167.479 189.687 167.479Z" fill="#49457B"/>
<path d="M98.9617 162.571C98.7551 162.571 98.5484 162.497 98.3848 162.342C95.1274 159.271 92.84 153.777 90.7736 148.414C89.4878 145.079 89.0172 142.548 88.6039 140.315C88.3484 138.945 88.1303 137.763 87.7601 136.605C86.4973 132.65 86.2677 129.049 87.0799 125.897C87.4559 124.436 88.1332 123.509 89.0918 123.14C90.3546 122.654 91.5112 123.378 91.6375 123.463C92.0249 123.718 92.1311 124.236 91.8757 124.622C91.6231 125.005 91.1065 125.111 90.7191 124.862C90.6961 124.848 90.1451 124.522 89.6859 124.705C89.2783 124.865 88.9311 125.437 88.7043 126.312C87.9725 129.155 88.1906 132.447 89.3587 136.096C89.7605 137.354 89.9987 138.641 90.2541 140.008C90.6559 142.171 91.1123 144.622 92.3406 147.813C94.2492 152.77 96.5394 158.295 99.5386 161.127C99.8744 161.444 99.8887 161.973 99.5701 162.308C99.4065 162.485 99.1856 162.571 98.9617 162.571Z" fill="#49457B"/>
<path d="M150.437 258.046C149.99 258.046 149.62 257.697 149.599 257.248C149.579 256.788 149.938 256.396 150.4 256.376C161.277 255.896 170.763 253.528 178.598 249.338C184.665 246.092 189.619 241.847 193.321 236.725C197.417 231.059 198.544 226.149 198.375 225.194C198.16 224.896 198.16 224.479 198.404 224.178C198.694 223.821 199.225 223.764 199.583 224.055C200.289 224.624 200.206 226.249 199.337 228.883C198.375 231.792 195.201 239.299 186.533 246.146C177.361 253.39 165.227 257.394 150.472 258.046C150.46 258.044 150.449 258.046 150.437 258.046ZM198.53 225.351C198.53 225.351 198.53 225.354 198.53 225.351C198.53 225.354 198.53 225.351 198.53 225.351Z" fill="#49457B"/>
<path d="M147.756 267.376C147.314 267.376 146.944 267.033 146.918 266.586C146.892 266.126 147.245 265.731 147.71 265.705C148.422 265.665 149.18 265.628 149.972 265.588C159.851 265.096 174.78 264.356 187.601 256.225C187.991 255.976 188.51 256.09 188.76 256.482C189.01 256.871 188.895 257.389 188.502 257.637C175.308 266.006 159.5 266.789 150.055 267.258C149.266 267.299 148.514 267.336 147.802 267.376C147.788 267.376 147.771 267.376 147.756 267.376Z" fill="#49457B"/>
<path d="M191.777 255.138C191.527 255.138 191.283 255.029 191.117 254.817C190.83 254.454 190.893 253.928 191.257 253.645C198.754 247.77 202.8 241.175 204.875 236.676C207.361 231.288 207.668 227.639 207.533 227.03C206.669 225.808 200.068 219.637 197.517 218.81C194.81 217.935 186.344 217.723 186.258 217.72C185.796 217.709 185.428 217.326 185.44 216.865C185.451 216.405 185.847 216.036 186.298 216.05C186.657 216.059 195.097 216.267 198.036 217.22C201.067 218.201 208.087 224.799 208.977 226.169C209.76 227.376 208.672 232.303 206.603 236.934C204.462 241.721 200.243 248.731 192.299 254.958C192.141 255.078 191.957 255.138 191.777 255.138Z" fill="#49457B"/>
<path d="M199.018 227.759C198.946 227.759 198.872 227.75 198.797 227.73C198.352 227.61 198.088 227.153 198.209 226.707C198.22 226.661 198.777 224.41 197.511 221.633C197.319 221.212 197.506 220.718 197.927 220.526C198.349 220.334 198.846 220.52 199.038 220.941C200.574 224.307 199.859 227.027 199.827 227.141C199.724 227.513 199.385 227.759 199.018 227.759Z" fill="#49457B"/>
<path d="M145.085 258.058C145.073 258.058 145.062 258.058 145.05 258.058C130.212 257.452 118.012 253.47 108.785 246.223C100.066 239.376 96.8657 231.84 95.8927 228.917C95.0117 226.263 94.9227 224.627 95.6344 224.055C95.9932 223.764 96.5241 223.821 96.814 224.178C97.058 224.479 97.058 224.893 96.8427 225.194C96.6734 226.155 97.8099 231.088 101.934 236.774C105.662 241.913 110.647 246.16 116.749 249.403C124.63 253.591 134.176 255.941 145.119 256.388C145.581 256.408 145.943 256.797 145.923 257.257C145.903 257.706 145.532 258.058 145.085 258.058ZM96.6906 225.351C96.6906 225.351 96.6906 225.354 96.6906 225.351C96.6906 225.354 96.6906 225.351 96.6906 225.351Z" fill="#49457B"/>
<path d="M147.464 267.376C147.447 267.376 147.432 267.376 147.415 267.376C146.706 267.336 145.954 267.298 145.162 267.258C135.717 266.789 119.912 266.003 106.718 257.637C106.328 257.389 106.213 256.874 106.46 256.482C106.71 256.093 107.226 255.979 107.62 256.225C120.44 264.353 135.367 265.096 145.248 265.588C146.043 265.628 146.798 265.665 147.51 265.705C147.972 265.731 148.328 266.126 148.302 266.586C148.276 267.03 147.906 267.376 147.464 267.376Z" fill="#49457B"/>
<path d="M103.444 255.138C103.263 255.138 103.08 255.081 102.925 254.96C94.9805 248.734 90.7616 241.721 88.6206 236.937C86.5513 232.309 85.4636 227.379 86.2471 226.172C87.1368 224.802 94.1568 218.204 97.1875 217.223C100.126 216.27 109.356 216.062 109.747 216.053C109.752 216.053 109.758 216.053 109.764 216.053C110.22 216.053 110.593 216.416 110.602 216.871C110.613 217.331 110.243 217.715 109.781 217.726C109.686 217.729 100.411 217.938 97.7041 218.816C95.1527 219.642 88.5517 225.814 87.6878 227.035C87.5529 227.645 87.86 231.294 90.3454 236.682C92.4204 241.181 96.4643 247.776 103.964 253.651C104.328 253.937 104.391 254.463 104.104 254.823C103.938 255.029 103.694 255.138 103.444 255.138Z" fill="#49457B"/>
<path d="M96.2029 227.756C95.8356 227.756 95.4969 227.513 95.3965 227.141C95.3649 227.027 94.6503 224.307 96.1857 220.941C96.378 220.52 96.8745 220.334 97.2964 220.526C97.7183 220.718 97.9048 221.212 97.7125 221.633C96.4383 224.424 97.0094 226.684 97.0151 226.707C97.1328 227.153 96.8659 227.61 96.421 227.728C96.3464 227.748 96.2747 227.756 96.2029 227.756Z" fill="#49457B"/>
<path d="M199.058 225.54C198.952 225.54 198.843 225.52 198.74 225.477C198.61 225.425 195.554 224.164 191.963 222.028C187.09 219.125 183.761 216.133 182.071 213.13C180.383 210.136 179.482 205.834 179.396 200.346C179.33 196.302 179.743 193.162 179.763 193.027C179.823 192.57 180.248 192.246 180.705 192.309C181.164 192.369 181.485 192.79 181.425 193.247C181.408 193.37 179.815 205.711 183.534 212.309C187.248 218.899 199.256 223.878 199.377 223.929C199.804 224.104 200.011 224.593 199.833 225.019C199.701 225.345 199.388 225.54 199.058 225.54Z" fill="#49457B"/>
<path d="M96.1629 225.54C95.7985 225.54 95.4627 225.299 95.3565 224.933C95.2302 224.49 95.4856 224.027 95.9305 223.898C96.0395 223.866 106.925 220.706 109.371 215.898C110.387 213.902 110.829 209.778 110.645 203.972C110.504 199.511 110.037 195.624 110.034 195.587C109.979 195.129 110.306 194.712 110.765 194.657C111.225 194.603 111.644 194.929 111.698 195.387C111.776 196.033 113.592 211.297 110.866 216.656C108.091 222.113 96.8661 225.371 96.3897 225.508C96.3151 225.528 96.2376 225.54 96.1629 225.54Z" fill="#49457B"/>
<path d="M254.535 248.634C254.409 248.634 254.279 248.606 254.159 248.545C252.316 247.627 249.756 246.4 246.553 244.902C246.134 244.704 245.954 244.207 246.152 243.789C246.35 243.372 246.849 243.192 247.268 243.389C250.482 244.896 253.054 246.126 254.911 247.053C255.324 247.258 255.493 247.762 255.287 248.174C255.138 248.463 254.842 248.634 254.535 248.634Z" fill="#49457B"/>
<path d="M242.659 243C242.542 243 242.421 242.974 242.306 242.923C227.816 236.222 208.125 227.476 207.926 227.387C207.505 227.198 207.312 226.707 207.502 226.283C207.691 225.863 208.185 225.671 208.61 225.86C208.808 225.949 228.51 234.7 243.012 241.407C243.431 241.601 243.615 242.099 243.42 242.517C243.279 242.823 242.975 243 242.659 243Z" fill="#49457B"/>
<path d="M36.4841 249.913C36.1771 249.913 35.8814 249.744 35.7322 249.449C35.5256 249.037 35.692 248.534 36.1082 248.328C37.9622 247.404 40.6313 246.143 44.0466 244.579C44.4685 244.387 44.965 244.57 45.1602 244.991C45.3553 245.411 45.1688 245.906 44.7497 246.1C41.3517 247.656 38.6969 248.912 36.8601 249.824C36.7396 249.884 36.6104 249.913 36.4841 249.913Z" fill="#49457B"/>
<path d="M48.2342 244.433C47.9156 244.433 47.6085 244.25 47.4707 243.941C47.2784 243.52 47.4679 243.026 47.8898 242.834C63.6001 235.738 86.4051 225.951 86.6347 225.854C87.0595 225.671 87.5531 225.868 87.7368 226.292C87.9205 226.715 87.7225 227.207 87.2977 227.39C87.0681 227.487 64.2775 237.268 48.5814 244.358C48.4666 244.41 48.349 244.433 48.2342 244.433Z" fill="#49457B"/>
<path d="M191.993 156.637C191.932 156.637 191.872 156.634 191.809 156.622C191.568 156.585 191.226 156.456 190.959 156.047C190.299 155.029 191.241 153.822 192.237 152.544C192.816 151.8 193.476 150.957 193.611 150.353C193.801 149.498 193.468 148.646 193.115 147.745C192.868 147.116 192.615 146.469 192.552 145.806C192.406 144.293 193.766 141.65 195.262 139.022C195.31 138.936 200.465 130.505 202.876 130.774C204.563 130.959 205.117 133.021 205.177 134.211C205.195 134.557 204.928 134.852 204.58 134.869C204.227 134.886 203.938 134.62 203.92 134.277C203.889 133.722 203.608 132.118 202.738 132.02C202.732 132.02 202.729 132.02 202.724 132.02C201.776 132.02 198.08 136.605 196.358 139.64C195.557 141.052 193.677 144.359 193.806 145.686C193.855 146.175 194.065 146.715 194.289 147.29C194.676 148.28 195.112 149.401 194.84 150.625C194.644 151.503 193.927 152.424 193.232 153.313C192.782 153.891 191.843 155.095 192.018 155.367C192.021 155.37 192.024 155.375 192.027 155.378C192.271 155.332 192.842 154.852 193.192 154.56C193.738 154.103 194.303 153.631 194.877 153.45C195.709 153.19 196.217 152.272 196.76 150.064C196.843 149.727 197.182 149.521 197.52 149.604C197.859 149.687 198.066 150.024 197.982 150.362C197.423 152.655 196.768 154.171 195.256 154.646C194.923 154.752 194.435 155.161 194.004 155.521C193.319 156.09 192.67 156.637 191.993 156.637Z" fill="#49457B"/>
<path d="M197.127 145.754C196.823 145.754 196.556 145.534 196.507 145.225C196.034 142.208 194.708 141.181 194.693 141.17C194.418 140.964 194.358 140.572 194.561 140.294C194.765 140.017 195.153 139.954 195.431 140.154C195.503 140.206 197.185 141.444 197.747 145.031C197.802 145.374 197.566 145.694 197.222 145.746C197.19 145.754 197.159 145.754 197.127 145.754Z" fill="#49457B"/>
<path d="M200.223 149.075C200.169 149.075 200.114 149.069 200.06 149.055C199.724 148.966 199.526 148.623 199.615 148.288C201.701 140.518 198.412 135.229 198.378 135.178C198.191 134.886 198.277 134.497 198.57 134.311C198.863 134.125 199.25 134.211 199.437 134.5C199.586 134.732 203.065 140.28 200.829 148.609C200.757 148.892 200.502 149.075 200.223 149.075Z" fill="#49457B"/>
<path d="M195.416 158.421C195.212 158.421 195.014 158.324 194.891 158.141C194.698 157.852 194.776 157.463 195.066 157.271C196.065 156.608 196.811 155.315 196.819 155.301C196.992 155.001 197.376 154.895 197.678 155.066C197.979 155.238 198.085 155.618 197.916 155.922C197.881 155.984 197.017 157.483 195.766 158.315C195.66 158.387 195.536 158.421 195.416 158.421Z" fill="#49457B"/>
<path d="M95.1468 138.833C94.8885 138.833 94.6474 138.676 94.5556 138.421C90.9394 128.52 87.6676 128.949 87.636 128.952C87.3002 129.032 86.9673 128.823 86.887 128.488C86.8066 128.154 87.0219 127.811 87.3605 127.73C87.7968 127.625 91.7315 127.018 95.738 137.995C95.8557 138.321 95.6892 138.681 95.3621 138.799C95.2903 138.822 95.2186 138.833 95.1468 138.833Z" fill="#49457B"/>
<path d="M91.7581 149.26C91.4768 149.26 91.2185 149.072 91.1468 148.786C88.8479 139.631 91.7093 132.386 91.8327 132.083C91.9619 131.763 92.3292 131.609 92.6507 131.737C92.9721 131.866 93.13 132.232 93.0008 132.552C92.9721 132.624 90.1739 139.737 92.3665 148.483C92.4498 148.817 92.246 149.16 91.9074 149.243C91.8586 149.255 91.8069 149.26 91.7581 149.26Z" fill="#49457B"/>
<path d="M93.6514 145.423C93.6256 145.423 93.6026 145.423 93.5768 145.417C93.2324 145.377 92.9856 145.065 93.0258 144.719C93.2755 142.64 94.7018 139.84 94.7621 139.72C94.92 139.411 95.2988 139.291 95.6088 139.448C95.9187 139.605 96.0393 139.983 95.8814 140.292C95.8671 140.317 94.4952 143.012 94.2742 144.868C94.2369 145.188 93.9671 145.423 93.6514 145.423Z" fill="#49457B"/>
<path d="M97.3481 154.051C97.2649 154.051 97.1817 154.034 97.0984 154C97.0496 153.98 95.8787 153.465 94.6876 152.198C94.4494 151.946 94.4638 151.549 94.7163 151.311C94.9689 151.074 95.3678 151.088 95.606 151.34C96.6077 152.404 97.5892 152.844 97.6007 152.847C97.9164 152.987 98.0627 153.356 97.925 153.671C97.8217 153.908 97.5892 154.051 97.3481 154.051Z" fill="#49457B"/>
<path d="M136.047 147.465C135.705 147.465 135.424 147.19 135.418 146.85C135.392 145.411 135.415 143.841 135.438 142.319C135.481 139.402 135.522 136.645 135.249 134.835C134.856 132.226 132.313 129.712 132.29 129.687C132.043 129.444 132.037 129.046 132.281 128.8C132.525 128.554 132.924 128.548 133.171 128.792C133.289 128.906 136.038 131.629 136.494 134.649C136.781 136.559 136.741 139.365 136.698 142.337C136.675 143.847 136.652 145.408 136.678 146.827C136.684 147.173 136.408 147.459 136.061 147.465C136.053 147.465 136.05 147.465 136.047 147.465Z" fill="#49457B"/>
<path d="M152.101 137.454C151.852 137.454 151.616 137.306 151.516 137.06C151.387 136.739 151.545 136.373 151.866 136.245C151.883 136.239 153.531 135.578 155.752 134.377C156.059 134.211 156.395 134.017 156.754 133.811C159.058 132.484 162.542 130.479 166.664 131.082C171.31 131.766 174.863 134.74 175.013 134.866C175.277 135.089 175.308 135.487 175.084 135.75C174.86 136.013 174.461 136.047 174.197 135.821C174.163 135.793 170.762 132.953 166.48 132.324C162.795 131.783 159.667 133.582 157.385 134.898C157.015 135.112 156.67 135.309 156.352 135.481C154.062 136.717 152.406 137.383 152.334 137.409C152.259 137.44 152.179 137.454 152.101 137.454Z" fill="#49457B"/>
<path d="M152.972 134.449C152.852 134.449 152.734 134.397 152.651 134.297C152.502 134.12 152.528 133.857 152.706 133.708C152.823 133.611 155.581 131.334 157.917 130.605C160.073 129.933 167.274 128.832 172.316 130.087C174.773 130.796 176.67 132.432 176.75 132.501C176.925 132.653 176.943 132.916 176.791 133.09C176.638 133.265 176.374 133.282 176.199 133.13C176.182 133.113 174.357 131.546 172.098 130.894C167.233 129.681 160.256 130.751 158.167 131.4C155.989 132.078 153.268 134.323 153.242 134.346C153.162 134.414 153.067 134.449 152.972 134.449Z" fill="#49457B"/>
<path d="M130.015 137.077C129.923 137.077 129.829 137.057 129.74 137.014C129.625 136.957 126.896 135.63 125.587 134.723C125.438 134.62 125.268 134.494 125.076 134.354C123.67 133.313 121.055 131.377 116.899 131.529C112.425 131.689 110.04 133.396 108.617 134.414L108.387 134.577C108.103 134.778 107.71 134.712 107.509 134.429C107.308 134.145 107.374 133.754 107.658 133.553L107.882 133.393C109.32 132.364 111.997 130.447 116.853 130.27C121.445 130.107 124.295 132.212 125.825 133.345C126.003 133.476 126.164 133.594 126.302 133.691C127.533 134.543 130.259 135.87 130.288 135.884C130.601 136.036 130.73 136.411 130.578 136.722C130.474 136.945 130.251 137.077 130.015 137.077Z" fill="#49457B"/>
<path d="M128.981 133.416C128.889 133.416 128.798 133.387 128.72 133.325C128.703 133.31 126.895 131.883 125.199 131.285C123.362 130.636 118.454 129.981 113.302 130.568C108.326 131.134 107.198 132.552 107.186 132.567C107.049 132.747 106.788 132.79 106.604 132.655C106.42 132.521 106.371 132.269 106.503 132.083C106.627 131.906 107.855 130.347 113.208 129.738C118.491 129.138 123.566 129.821 125.48 130.499C127.311 131.145 129.165 132.612 129.242 132.672C129.423 132.815 129.452 133.079 129.308 133.259C129.225 133.362 129.105 133.416 128.981 133.416Z" fill="#49457B"/>
<path d="M140.232 171.488C140.083 171.488 139.928 171.48 139.764 171.463C138.094 171.288 137.147 170.324 136.05 169.209C135.66 168.812 135.258 168.4 134.782 167.979C133.08 166.472 131.648 166.04 131.633 166.037C131.335 165.949 131.163 165.637 131.249 165.339C131.335 165.042 131.648 164.868 131.946 164.956C132.015 164.976 133.622 165.448 135.531 167.138C136.036 167.587 136.472 168.031 136.857 168.423C137.876 169.461 138.613 170.213 139.879 170.344C141.297 170.493 142.1 169.727 143.211 168.671C143.44 168.451 143.679 168.225 143.934 167.996L144.112 167.836C145.622 166.475 146.928 165.299 149.005 165.122C149.318 165.093 149.591 165.325 149.617 165.634C149.643 165.943 149.413 166.217 149.103 166.243C147.404 166.386 146.285 167.396 144.87 168.669L144.692 168.829C144.445 169.049 144.215 169.269 143.994 169.481C142.912 170.513 141.888 171.488 140.232 171.488Z" fill="#49457B"/>
<path d="M129.974 165.829C129.94 165.829 129.905 165.826 129.871 165.82C129.782 165.806 127.692 165.411 127.314 163.2C126.958 161.115 127.842 159.113 129.736 157.706C129.997 157.515 130.364 157.566 130.56 157.826C130.755 158.087 130.7 158.453 130.439 158.647C128.889 159.797 128.192 161.344 128.473 163.003C128.708 164.387 130.023 164.653 130.077 164.665C130.396 164.725 130.606 165.031 130.548 165.345C130.499 165.631 130.253 165.829 129.974 165.829Z" fill="#49457B"/>
<path d="M150.802 166.309C150.532 166.309 150.288 166.123 150.228 165.848C150.159 165.534 150.357 165.219 150.672 165.151C150.701 165.145 152.414 164.739 152.759 163.489C153.192 161.913 152.538 160.166 151.048 158.927C150.799 158.721 150.764 158.35 150.974 158.101C151.183 157.852 151.553 157.818 151.803 158.026C153.651 159.562 154.452 161.773 153.895 163.798C153.362 165.74 151.028 166.272 150.928 166.295C150.888 166.303 150.845 166.309 150.802 166.309Z" fill="#49457B"/>
<path d="M140.702 185.142C137.913 185.142 134.047 184.221 130.307 183.329C129.518 183.14 128.735 182.954 127.968 182.777C123.609 181.776 121.537 180.698 121.45 180.655C121.155 180.5 121.04 180.134 121.198 179.84C121.353 179.545 121.72 179.433 122.016 179.588C122.036 179.599 124.059 180.64 128.241 181.604C129.007 181.782 129.794 181.967 130.589 182.156C134.259 183.031 138.056 183.935 140.702 183.935C144.198 183.935 147.43 183.689 150.874 183.16C154.473 182.605 159.469 181.524 162.827 179.516C163.114 179.345 163.487 179.436 163.66 179.722C163.832 180.008 163.74 180.38 163.453 180.552C159.926 182.662 154.768 183.784 151.06 184.356C147.553 184.893 144.264 185.142 140.702 185.142Z" fill="#49457B"/>
<path d="M141.055 181.724C140.998 181.724 140.946 181.721 140.9 181.716C140.194 181.619 137.304 180.795 136.977 180.703C136.655 180.612 136.469 180.277 136.561 179.957C136.652 179.637 136.988 179.451 137.31 179.542C138.561 179.9 140.596 180.455 141.064 180.52C141.442 180.552 143.408 180.04 145.007 179.545C145.328 179.448 145.667 179.625 145.765 179.943C145.865 180.26 145.684 180.6 145.366 180.698C144.338 181.018 141.95 181.724 141.055 181.724Z" fill="#49457B"/>
<path d="M142.138 189.973C136.605 189.973 132.291 188.042 132.03 187.922C131.726 187.782 131.594 187.424 131.731 187.121C131.872 186.818 132.231 186.686 132.535 186.824C132.624 186.864 141.63 190.882 150.045 187.164C150.352 187.03 150.708 187.167 150.845 187.473C150.98 187.779 150.843 188.134 150.535 188.271C147.663 189.538 144.761 189.973 142.138 189.973Z" fill="#49457B"/>
<path d="M161.478 132.607C161.478 132.607 159.455 135.098 162.121 137.612C162.503 137.872 165.763 138.37 167.523 137.921C168.593 137.589 170.45 135.644 169.047 132.75C167.239 130.685 161.883 132.181 161.478 132.607Z" fill="#49457B"/>
<path d="M114.999 131.325C114.999 131.325 113.951 132.512 114.238 134.694C114.405 135.927 115.452 137.16 116.023 137.446C116.368 137.617 120.282 137.872 121.522 137.208C122.759 136.496 123.569 134.386 122.616 132.441C120.165 130.733 116.856 130.805 114.999 131.325Z" fill="#49457B"/>
<path d="M177.55 120.583C175.504 119.983 171.54 119.825 171.54 119.825L174.092 120.909C172.232 120.5 169.987 120.703 168.395 121.012C165.82 121.447 156.88 122.826 156.553 122.963C156.223 123.1 153.35 124.716 153.35 124.716L154.446 123.309C154.446 123.309 153.181 123.715 152.71 123.898C152.239 124.081 150.535 125.714 150.535 125.714L151.212 124.158C148.85 125.972 147.877 128.52 147.877 128.52L149.102 127.851L148.528 128.792L150.342 127.776L149.559 128.689C149.559 128.689 150.308 128.583 150.471 128.583C150.635 128.583 152.377 127.616 152.377 127.616L151.404 128.634C151.404 128.634 154.185 128.477 160.554 127.199C166.922 125.92 174.585 125.565 176.824 125.743C180.319 126.08 184.817 128.097 184.817 128.097C182.412 123.029 178.709 120.981 177.55 120.583Z" fill="#49457B"/>
<path d="M182.916 127.833C182.4 127.642 179.696 127.018 179.696 127.018C179.696 127.018 181.375 128.328 182.4 128.62C183.424 128.912 185.468 129.446 185.468 129.446C185.468 129.446 183.433 128.025 182.916 127.833Z" fill="#49457B"/>
<path d="M104.67 120.555C106.507 119.914 110.097 119.68 110.097 119.68L107.812 120.812C109.489 120.366 111.526 120.526 112.978 120.801C115.323 121.184 123.457 122.385 123.758 122.517C124.06 122.648 126.703 124.207 126.703 124.207L125.675 122.823C125.675 122.823 126.835 123.206 127.262 123.378C127.693 123.552 129.28 125.151 129.28 125.151L128.626 123.609C130.813 125.377 131.757 127.902 131.757 127.902L130.632 127.259L131.177 128.188L129.51 127.21L130.244 128.108C130.244 128.108 129.564 128.017 129.415 128.022C129.266 128.028 127.664 127.093 127.664 127.093L128.571 128.091C128.571 128.091 126.048 127.988 120.245 126.838C114.442 125.689 107.531 125.039 105.508 125.26C102.348 125.669 98.6543 127.962 98.6543 127.962C100.692 122.846 103.628 120.975 104.67 120.555Z" fill="#49457B"/>
<path d="M100.7 127.719C101.162 127.516 103.599 126.841 103.599 126.841C103.599 126.841 102.109 128.185 101.188 128.497C100.266 128.809 98.4297 129.384 98.4297 129.384C98.4297 129.384 100.238 127.922 100.7 127.719Z" fill="#49457B"/>
</svg>
