<svg xmlns="http://www.w3.org/2000/svg" viewBox="0 0 75.25 43.11"><defs><style>.cls-1{fill:none;stroke:#8193b2;stroke-miterlimit:2.61;stroke-width:0.3px;}</style></defs><g id="Ebene_2" data-name="Ebene 2"><g id="Ebene_1-2" data-name="Ebene 1"><path class="cls-1" d="M75.25,42.35H68.19a5.17,5.17,0,0,1-1.85-.14,3.27,3.27,0,0,1-1.2-.9,6.51,6.51,0,0,1-1-1.58,8.53,8.53,0,0,1-.36-1.12c-.1-.3-.27-.54-1.77-.56s-4.35.16-7.86.42-7.68.58-9.85.73a10.14,10.14,0,0,1-2.42.09c-.09,0-.09-.08.48-.26s1.71-.47,5-1.14S56,36.18,59,35.59s3.65-.76,4-1,.34-.38.14-3.52-.63-9.18-1-14.06-.62-8.57-.73-10.57-.08-2.28,0-2.35.18.1.41.68a22.17,22.17,0,0,1,.77,2.43,19.45,19.45,0,0,1,.36,2A20.88,20.88,0,0,1,63,11.4c.07,1.58.19,4.62.38,8.21s.46,7.76.69,11.14.44,6,.52,7.42a5.73,5.73,0,0,1,0,1.92c-.07.21-.18.36-3,.39s-8.35-.06-12.5-.13-6.93-.14-8.37-.22-1.54-.18-1.56-.28.05-.21,1.59-.79,4.56-1.65,8.31-3,8.22-2.86,10.53-3.71,2.45-1,2.19-4.76-.91-11.17-1.32-16.19-.59-7.68-.77-9.09-.35-1.58-2-1-4.69,2-7.89,3.4-6.53,2.93-8.34,3.72a8.14,8.14,0,0,1-2.3.88c-.19,0-.26-.12-.4-.4s-.35-.71-1.53-1.43a45.49,45.49,0,0,0-6.69-3C27.23,3.22,22.65,1.66,20.25.88S17.6.11,17.44.18s-.22.22-.32,1.13-.21,2.61-.32,3.5-.2,1-.38,1.05a2.77,2.77,0,0,1-.65,0c-.2,0-.33,0-.42.33s-.12,1-.41,3.39-.81,6.49-1.32,10.56-1,8.11-1.32,10.81-.5,4-.62,4.85a6.18,6.18,0,0,1-.32,1.43c-.14.38-.35.88-.47,1.31s-.17.77-.27,1.13a7.13,7.13,0,0,1-.41,1c-.13.28-.24.45-.2.53s.22.09,1.32,0,3.11-.14,5.91-.29l9.39-.49c3-.15,5.33-.27,6.6-.3s1.46,0,1.68.18.47.47.65.64a.46.46,0,0,0,.53.17,1.32,1.32,0,0,0,.84-.58,2.21,2.21,0,0,0,.25-1.33,1,1,0,0,0-.52-.72,7.54,7.54,0,0,0-2-.92c-1.43-.52-4-1.35-7.48-2.46s-8-2.48-10.34-3.29-2.34-1.06-1.94-4.6,1.22-10.38,1.74-15.27.72-7.82.84-9.37.18-1.71.61-1.63,1.24.4,3.22,1.07S26.46,3.81,29,4.68A52.29,52.29,0,0,1,35,7a13.57,13.57,0,0,1,3,1.89c.52.47.61.7.59,4.1s-.12,10-.2,14.75-.11,7.81-.14,9.45,0,1.91-.13,2.09-.29.28-2.24.19-5.64-.37-10-.59-9.52-.41-12.12-.54-2.69-.23-2.69-.8.1-1.6.44-4.49.92-7.63,1.44-11.56,1-7.08,1.12-8.68-.07-1.69-.37-1.72a1.46,1.46,0,0,0-.92.16c-.25.18-.36.51-.87,4.77s-1.41,12.45-2,17.34S9,39.86,8.94,40.72s0,1,.2,1.09.53.1,4.5-.1,11.58-.61,15.59-.83,4.45-.24,4.91-.25a9.89,9.89,0,0,0,1.49-.1,14.83,14.83,0,0,0,1.56-.41,3.58,3.58,0,0,1,1.16-.19.94.94,0,0,1,.63.36,5.32,5.32,0,0,0,.4.52c.13.11.26.13,3.14.24s8.51.3,12.59.49,6.63.34,8.14.42a12.48,12.48,0,0,0,2.26,0c.28,0,.36-.13.37-.41s-.06-.76-.38-4.8-.89-11.64-1.24-16.49-.5-6.92-.58-8-.08-1.19.06-1.27a1.55,1.55,0,0,1,.64-.14.36.36,0,0,1,.38.32c0,.24,0,.65.34,5.14s.9,13.06,1.26,18,.49,6.28.51,7-.06,1-.2,1.13-.32.22-1.57.24-3.59,0-7.87-.16-10.52-.5-13.75-.6-3.42,0-3.58.17a2.69,2.69,0,0,1-.62.45,3.93,3.93,0,0,1-1.41.34,3.15,3.15,0,0,1-1.68-.37,3.4,3.4,0,0,1-.92-1c-.19-.26-.3-.31-2.52-.17s-6.53.44-10.17.7-6.57.47-8.82.56-3.78,0-5.66,0-4.09,0-5.49,0H0" transform="translate(0 0)"/></g></g></svg>