<svg xmlns="http://www.w3.org/2000/svg" viewBox="0 0 72.65 40.81"><defs><style>.cls-1{fill:none;stroke:#8193b2;stroke-miterlimit:10;stroke-width:0.3px;}</style></defs><g id="Ebene_2" data-name="Ebene 2"><g id="Ebene_1-2" data-name="Ebene 1"><path class="cls-1" d="M.1,40.64S1.6,40,2,40.16s-2.11.47-1.77.5A23.39,23.39,0,0,0,3,40Q4.49,39.6,6,39.21c1-.26,2-.48,3-.78.72-.22,1.44-.44,2.14-.73a5.39,5.39,0,0,0,.83-.42,1.16,1.16,0,0,0,.31-.27c.24-.34-.63-.55-.83-.62-1-.31-1.92-.6-2.91-.84S6.58,35.2,5.59,35a7.88,7.88,0,0,1-1.45-.36,1.08,1.08,0,0,1-.35-.19.09.09,0,0,1,0-.05c0-.06,0-.08.05-.1a5.84,5.84,0,0,1,2.84-.46c1.06,0,2.12,0,3.18-.05.83,0,1.65,0,2.48,0l3.19-.09c.5,0,1-.05,1.5-.06a6.39,6.39,0,0,0,1.57-.16,4.78,4.78,0,0,0,1.31-.57,4.1,4.1,0,0,0,.68-.47.5.5,0,0,0,.18-.39.9.9,0,0,0-.92-.68c-.25,0-.37.26-.49.46a3.8,3.8,0,0,0-.51,1.21c0,.08,0,.19.06.23a.13.13,0,0,0,.12,0,1.15,1.15,0,0,0,.33-.45,14,14,0,0,0,.79-1.54A9.75,9.75,0,0,0,20.66,30c.16-.53.19-1.1.4-1.61.07-.18.14.11.16.17s0,.28.06.43,0,.56.21.64a.46.46,0,0,0,.45-.05c.08-.05.22-.33.34-.28s-.06.49-.09.59c-.08.26-.28.75.13.85.18.05.33-.15.51-.13s0,.18-.12.23c-.25.15-.51.28-.77.41a6.45,6.45,0,0,1-.59.29,1.69,1.69,0,0,0-.55.32c.11.11.39,0,.5-.06a7.37,7.37,0,0,0,2.25-1.19,8.79,8.79,0,0,0,1.34-1.25c.31-.37.63-.74,1-1.08s.68-.49,1-.78a2.86,2.86,0,0,0,.82-1.82,2.8,2.8,0,0,0-.17-1.18c-.11-.3-.33-.84-.66-1a.68.68,0,0,0-.67.27,2.87,2.87,0,0,0-.52,3,1.25,1.25,0,0,0,.2.38.14.14,0,0,0,.08,0c.07,0,.1-.06.11-.12a1.18,1.18,0,0,0-.13-.84,1.59,1.59,0,0,0-.76-.69,2.14,2.14,0,0,0-1.79.2,4.71,4.71,0,0,0-1.26,1.1,5.72,5.72,0,0,0-.37.49c-.1.13-.31.4-.17.6a.29.29,0,0,0,.21.11.61.61,0,0,0,.42-.17,4.92,4.92,0,0,0,.63-.58,5.78,5.78,0,0,0,.82-1,1.3,1.3,0,0,0,.2-.49c.1-.71-.64-.61-1-1s-.13-.7,0-1a69.34,69.34,0,0,1,3.45-7.79,3.63,3.63,0,0,1,.6-.9,3.64,3.64,0,0,1,1.29-.72l5-1.94a8.71,8.71,0,0,1,3.56-.83,2.74,2.74,0,0,0,1,0,2,2,0,0,0,.73-.56c1.5-1.49,2.94-3,4.41-4.55L45,4.22c.56-.58,1.1-1.18,1.67-1.75.26-.26.53-.49.77-.75s.51-.57.79-.83A2.29,2.29,0,0,1,49.89.15a1.79,1.79,0,0,1,1,.39,1.92,1.92,0,0,1,.77,1.28,1.89,1.89,0,0,1-.47,1.45,2.17,2.17,0,0,1-3,.39,2.67,2.67,0,0,1-1-1.38.06.06,0,0,1,.08-.07,3.27,3.27,0,0,1,1.87,1.65,1.24,1.24,0,0,1,.13.88,1.59,1.59,0,0,1-.4.58q-6.27,6.56-13.12,12.54a6.79,6.79,0,0,1-1.38,1c-1.48.71-3.23.25-4.86.37a3,3,0,0,0-1.66.53c-1.06.83-.95,2.45-1.52,3.67-.21.44-.81.86-1.12.48a.64.64,0,0,1,.21-.83c.24-.2.56-.29.81-.49A2.8,2.8,0,0,0,27,20.71c.1-.69.36-1.47,1-1.68s1.59.27,2.07-.27a1,1,0,0,0,.23-.6,2.12,2.12,0,0,0-1.14-2,0,0,0,0,0-.06,0A3.33,3.33,0,0,0,30,18.49a.84.84,0,0,0,.55.31,1,1,0,0,0,.62-.35L34.79,15c1.34-1.28,2.84-2.64,4.68-2.75s3.39,1,4.92,1.85a33.66,33.66,0,0,0,9.1,3.69,4.19,4.19,0,0,1,2.06.9c1.05,1,.62,2.82-.08,4.12a11.47,11.47,0,0,1-4.79,4.84,8.49,8.49,0,0,1-6.69.5c-2.18-.82-3.88-2.63-6.06-3.45a8.08,8.08,0,0,0-8.34,1.9c-.59.59-1.22,1.32-2.05,1.29a.47.47,0,0,1-.41-.29c-.06-.15.05-.23.17-.31a1.34,1.34,0,0,1,1.11-.06c.2,0,.3.13.26.34-.09.52-.67.69-.9,1.12-.46.86,1,1.85,1.59,2.19A2,2,0,0,0,32.14,30,4.39,4.39,0,0,0,32.56,28a2.21,2.21,0,0,0-.23-1c-.06-.12-.41-.72-.58-.56a.18.18,0,0,0-.05.12,5.91,5.91,0,0,0,0,1.83,4.46,4.46,0,0,0,.87,2.45c1,1.08,1.28,1.41,2.25,1.14,0,0,1.24-2.71-1.35-2.88,0,0-2.31-.18-.46,2.31A2.2,2.2,0,0,0,34.2,32a3.12,3.12,0,0,0,1.36,0c.44-.1,1-.22,1.22-.67a2.07,2.07,0,0,0-.06-1.45,4.63,4.63,0,0,0-1.08-1.79,2.56,2.56,0,0,0-1.16-.71,1.33,1.33,0,0,0-1.28.33.3.3,0,0,0-.1.19c0,.16.16.27.31.32a4.06,4.06,0,0,0,1.83-.07,7.92,7.92,0,0,1,3.56.1,2.72,2.72,0,0,1,.94.45,1.34,1.34,0,0,1,.53.88,1.67,1.67,0,0,1-.16.82,3.2,3.2,0,0,1-.83,1.19,1.44,1.44,0,0,1-1.35.41c-.89-.28-1.16-1.63-1.26-2.43s-.15-1.93.59-2.28a.71.71,0,0,1,.69,0c1.26.53,2.43,1.28,3.7,1.82A42.46,42.46,0,0,0,47.26,31c2,.54,4.06.94,6.09,1.39,1.08.23,2.76.35,3-1.06a2.59,2.59,0,0,0,0-.48,24.85,24.85,0,0,0-.42-3,10.69,10.69,0,0,1,1.29-7.24A4.51,4.51,0,0,1,61,18.86c3.88-.31,7.73.61,11.6.34" transform="translate(0 0)"/></g></g></svg>