<?xml version="1.0" encoding="utf-8"?>
<!-- Generator: Adobe Illustrator 24.3.0, SVG Export Plug-In . SVG Version: 6.00 Build 0)  -->
<svg version="1.1" id="Ebene_1" xmlns="http://www.w3.org/2000/svg" xmlns:xlink="http://www.w3.org/1999/xlink" x="0px" y="0px"
	 viewBox="0 0 56.5 69.5" style="enable-background:new 0 0 56.5 69.5;" vector-effect="non-scaling-stroke" xml:space="preserve">
<style type="text/css">
	.st0{fill:none;stroke:#8193B2;stroke-width:0.3;stroke-miterlimit:10;}
</style>
<g id="Ebene_2_1_">
	<g id="Ebene_1-2">
		<path class="st0" d="M26.1,44.9C26,44.2,26,44.2,26,43.5c-0.2-3-0.1-6.1,0.1-9.1c0.2-3.1,0.4-6.1,0.5-9.2s0.1-6.1,0.1-9.1
			c0-1.6,0-3,0-4.6c0-1.3-0.1-2.6,0-3.9c0.1-1,0.2-1.9,0.4-2.9c0.1-0.8,0.5-1.6,1-2.3c0.8-0.7,1.9-1,2.9-0.9
			c0.5,0,11.6,0.1,12.2,0.1l0,0c0.6,0,2.5,0,3.2,0.1c0.9,0,1.8,0.4,2.3,1.1c0.2,0.4,0.3,0.9,0.3,1.4c0.1,0.6,0.1,1.1,0.1,1.7l0,0
			c0,1.4,0.2,2.9,0.2,4.4c0,0.6,0.1,1.3,0.1,1.9c0,2.5-0.1,5.1-0.1,7.6c-0.1,3.3-0.1,6.6-0.2,9.9C49.1,32.9,49,35.9,49,39
			c-0.1,1.8-0.1,3.5,0,5.3c0.2,1.1,0,2.2-0.7,3.2c-0.7,0.7-1.7,1.2-2.7,1.3c-1.3,0.3-2.5,0.4-4,0.5s-2.9,0.3-4.4,0.3
			c-2.9,0.1-5.7-0.1-8.6-0.7c-0.5-0.1-1-0.3-1.4-0.7c-0.3-0.5-0.6-1-0.7-1.6c-0.4-1.3-0.7-2.6-0.9-4c-0.3-2.8-0.3-6.3-0.2-9
			l0.1-17.7c0-1.5,0-2.9,0-4.4s-0.1-2.8,0-4.1c0-0.7,0.1-1.5,0.2-2.2c0.1-0.7,0.3-1.4,0.6-2c0.6-1.1,1.5-1.8,2.6-2.2
			c1.2-0.3,2.4-0.4,3.6-0.3h4.4c2.9-0.1,5.8-0.1,8.8-0.1c1.2-0.2,2.4,0.2,3.3,0.9c0.6,0.8,1,1.7,1,2.7c0,1,0,2-0.1,3
			c-0.1,1.3,0,2.6,0,3.8c0,5.9,0,11.8,0,17.7c0,2.9-0.1,5.8-0.1,8.7c0,1.5,0,3,0,4.4c0,1.2,0.1,2.5,0,3.7c0,1.1-0.3,2.1-0.9,3
			c-0.8,1-1.9,1.5-3.1,1.5c-2.9,0.3-5.8,0.3-8.6,0.4c-2.8,0.2-5.7,0.1-8.5-0.4c-0.6-0.1-1.3-0.3-1.8-0.7c-0.5-0.4-0.9-1-1-1.6
			c-0.3-1.4-0.6-2.7-0.8-4.1c-0.3-2.9-0.3-5.8,0-8.7c0.4-2.6,0.7-5.3,0.8-7.9c0-1.3-0.1-2.6-0.4-3.8c-0.2-1.2-0.7-2.3-1.4-3.2
			c-0.6-0.8-1.6-1.2-2.6-1c-0.9,0.3-1.5,1.3-1.4,2.2c0,0.5,0.1,1.1,0.1,1.6c0.1,0.7,0,1.3-0.1,2c-0.3,1.4-0.7,2.8-1.1,4.2
			c-0.8,2.6-2.1,5.1-2.5,7.8c-0.3,2.8-0.5,5.5-0.4,8.3c0,2.5-0.5,4.9-1.4,7.2c-0.4,1.1-1,2.1-1.7,3.1c-0.8,1-1.7,1.9-2.7,2.6
			c-1.1,0.7-2.1,1.5-3.1,2.4c-0.8,0.8-1.6,1.7-2.4,2.5c-1.4,1.8-3.1,3.3-5,4.4c-0.1,0,0,0.2,0,0.2"/>
		<path class="st0" d="M49.2,11.7L49.2,11.7L49.2,11.7z"/>
		<g>
			<g>
				<path class="st0" d="M49.2,7.1L49.2,7.1"/>
				<path class="st0" d="M23.1,69.4"/>
				<path class="st0" d="M23,69"/>
				<path class="st0" d="M50.2,19.8c1.4-0.8,2.6-1.8,3.5-3.1c0.4-0.7,0.7-1.5,0.7-2.3c0-0.8-0.4-1.5-1.1-1.9
					c-0.8-0.2-1.6-0.1-2.3,0.3c-0.8,0.6-1.3,1.5-1.3,2.5c-0.1,1.1-0.1,2.1,0,3.2c0,0.5,0.1,1.1,0.2,1.6c0.1,0.5,0.2,1,0.3,1.6
					c0.1,1.1,0.1,2.2,0,3.3c0,0.3,0,0.5,0,0.8c0,0.2,0,0.5,0,0.7c0,0.3,0.3,0.6,0.7,0.6c0,0,0.1,0,0.1,0c0.3-0.1,0.6-0.2,0.9-0.4
					c0.3-0.2,0.7-0.4,1-0.6c0.7-0.4,1.3-0.9,1.9-1.4c0.5-0.4,0.9-0.9,1.3-1.5c0.5-0.6,0.6-1.4,0.5-2.1c-0.1-0.8-0.7-1.5-1.5-1.8
					c-0.7-0.1-1.4,0-2,0.4c-0.4,0.2-0.7,0.3-1.1,0.5c-0.3,0.2-0.6,0.4-0.9,0.7c-0.3,0.2-0.6,0.6-0.7,1c-0.1,0.5-0.2,1-0.2,1.5
					c-0.1,1-0.1,2,0.1,2.9c0.1,0.4,0.3,0.9,0.5,1.2c0.2,0.3,0.4,0.6,0.5,1c0.1,0.3,0.1,0.3,0.1,0.3c0.1,0.6-0.5,1.8-1.5,2.2l0.2,0.3
					c0.5-1.2,1.7-1.9,2.9-1.8c1.1,0.2,1.8,1.3,1.7,2.4c-0.1,0.5-0.4,1-0.8,1.3c-0.4,0.4-0.8,0.7-1.2,1.1c-0.7,0.7-1.8,1.1-2.3,2
					c-0.2,0.4-0.2,0.9,0.1,1.3c0.1,0.2,0.2,0.3,0.2,0.5c0,0.2-0.4,0.3-0.6,0.4l0.2,0.3c0.2-0.6,0.7-1,1.3-1c0.7-0.1,1.3,0.2,1.7,0.7
					c0.4,0.6,0.6,1.3,0.5,2c-0.1,0.7-0.5,1.4-1.1,1.9c-0.2,0.2-0.5,0.5-0.8,0.7s-0.6,0.4-0.9,0.6c-0.3,0.2-0.5,0.4-0.6,0.7
					c-0.2,0.3-0.2,0.7-0.2,1c0,0.7-0.2,1.4-0.5,2.1c-0.2,0.6-0.5,1.1-1,1.4c-0.7,0.3-1.4,0.6-2.2,0.7c-0.8,0.2-1.6,0.5-2.3,0.9
					c-1.4,0.8-2.7,1.7-3.8,2.9c-1.2,1.1-2.3,2.4-3.5,3.6c-1.4,1.4-2.8,2.6-4.3,3.8s-3,2.4-4.5,3.6l-2.3,1.8
					c-0.7,0.5-1.4,1.1-2.1,1.7c-0.3,0.3-0.5,0.6-0.8,1c-0.1,0.1-0.1,0.4,0.1,0.4c1,0,1.9-0.4,2.6-1.1c0.9-0.7,1.8-1.5,2.6-2.2
					s1.8-1.5,2.6-2.2c0.8-0.7,1.5-1.4,2-2.3c0.5-0.9,0.8-2,0.7-3c-0.1-0.8-0.5-1.6-1.1-2.2c-1.3-1.3-3.1-2.1-4.9-2.3
					c-2-0.4-4-0.4-6,0.2c-1.5,0.5-3.1,1.6-3.4,3.3c-0.2,0.8,0.3,1.7,1.1,1.9c0.7,0.1,1.5,0,2.1-0.4c1.4-0.8,2.6-2.1,3.3-3.7
					c0.7-1.6,1.2-3.3,1.4-5"/>
			</g>
		</g>
	</g>
</g>
</svg>
