<svg width="68" height="68" viewBox="0 0 68 68" fill="none" xmlns="http://www.w3.org/2000/svg">
<g clip-path="url(#clip0)">
<path d="M28.6875 65.4817C28.3205 65.4814 27.9598 65.3863 27.6405 65.2054L9.57801 54.9735C9.25087 54.7883 8.97872 54.5196 8.78934 54.1949C8.59996 53.8701 8.50011 53.5009 8.5 53.125V31.875C8.50007 31.499 8.5999 31.1298 8.78929 30.805C8.97867 30.4802 9.25084 30.2115 9.57801 30.0263L27.6405 19.7944C27.9599 19.6138 28.3206 19.519 28.6875 19.519C29.0544 19.519 29.4151 19.6138 29.7345 19.7944L47.797 30.0263C48.1242 30.2115 48.3963 30.4802 48.5857 30.805C48.7751 31.1298 48.8749 31.499 48.875 31.875V53.125C48.8749 53.501 48.7751 53.8702 48.5857 54.195C48.3963 54.5198 48.1242 54.7885 47.797 54.9738L29.7345 65.2056C29.4151 65.3864 29.0545 65.4815 28.6875 65.4817ZM12.75 51.8861L28.6875 60.9142L44.625 51.8861V33.1139L28.6875 24.0858L12.75 33.1139V51.8861Z" fill="#8193B2"/>
<path d="M59.5001 36.125H55.2501V16.1139L39.3126 7.08582L22.2971 16.7238L20.2031 13.0263L38.2656 2.79438C38.585 2.61384 38.9457 2.51897 39.3126 2.51897C39.6795 2.51897 40.0402 2.61384 40.3596 2.79438L58.4221 13.0263C58.7493 13.2115 59.0214 13.4802 59.2108 13.805C59.4002 14.1298 59.5 14.499 59.5001 14.875V36.125Z" fill="#8193B2"/>
</g>
<defs>
<clipPath id="clip0">
<rect width="68" height="68" fill="white"/>
</clipPath>
</defs>
</svg>
