<svg width="60" height="60" viewBox="0 0 60 60" fill="none" xmlns="http://www.w3.org/2000/svg">
<path d="M28.9307 0C28.49 0 28.1562 0.00325 28.0347 0.01675C27.9057 0.03 27.495 0.06925 27.1257 0.09875C18.6038 0.867 10.6215 5.4645 5.56575 12.5308C2.7505 16.46 0.95 20.9165 0.27 25.6375C0.0295 27.285 0 27.7718 0 30.006C0 32.2402 0.03 32.727 0.27 34.375C1.9 45.64 9.91775 55.1048 20.7917 58.6113C22.739 59.239 24.7917 59.667 27.126 59.925C28.035 60.025 31.9645 60.025 32.8735 59.925C36.9027 59.4792 40.3165 58.4825 43.6828 56.7643C44.199 56.5002 44.2988 56.43 44.2285 56.371C44.1815 56.3363 41.9818 53.3865 39.3428 49.821L34.5452 43.341L28.5335 34.4453C25.2257 29.5543 22.5042 25.5553 22.4808 25.5553C22.4573 25.5487 22.434 29.502 22.422 34.3278C22.4052 42.7783 22.3988 43.1183 22.293 43.3178C22.1405 43.6053 22.023 43.7223 21.777 43.8512C21.5895 43.9448 21.425 43.9625 20.5395 43.9625H19.5245L19.255 43.7925C19.0879 43.6878 18.9521 43.5399 18.862 43.3645L18.7388 43.1005L18.752 31.343L18.7688 19.5795L18.9503 19.3507C19.0443 19.2275 19.2438 19.0695 19.3843 18.9932C19.6248 18.8757 19.7188 18.864 20.7332 18.864C21.93 18.864 22.1292 18.9108 22.44 19.2508C22.5282 19.345 25.7832 24.2475 29.6775 30.1528C33.6204 36.1298 37.5658 42.1053 41.5135 48.0793L46.264 55.2747L46.504 55.1165C48.6335 53.7325 50.8852 51.762 52.6682 49.7097C56.463 45.3525 58.909 40.0397 59.73 34.3747C59.9702 32.727 59.9995 32.2397 59.9995 30.006C59.9995 27.7718 59.9695 27.285 59.73 25.637C58.0995 14.372 50.082 4.90725 39.2083 1.40075C37.2902 0.779 35.2492 0.35075 32.962 0.09275C32.5395 0.04875 30.2532 0.00125 28.9312 0.00025L28.9307 0ZM39.102 18.0425C39.9702 18.0425 40.1225 18.0557 40.3162 18.16C40.598 18.3005 40.8263 18.5705 40.9088 18.8517C40.9552 19.0042 40.9672 22.265 40.9552 29.6128L40.9385 40.1565L39.0795 37.3065L37.2142 34.4565V26.7915C37.2142 21.8365 37.2375 19.0508 37.2728 18.916C37.3665 18.5877 37.5717 18.3295 37.8535 18.1772C38.0938 18.0537 38.1818 18.0422 39.1027 18.0422L39.102 18.0425Z" fill="#8193B2"/>
</svg>
