<svg width="49" height="66" viewBox="0 0 49 66" fill="none" xmlns="http://www.w3.org/2000/svg">
<path d="M5.2528 8.47105C5.2528 17.3145 10.5966 22.6206 21.2842 25.4132L32.6059 28.1128C42.75 30.5331 48.909 36.4908 48.909 46.172C48.9996 50.361 47.641 54.4569 45.1955 57.8081C45.1955 48.1269 40.3046 42.9139 28.6206 39.7489L17.4802 37.1424C8.51343 35.0945 1.62988 30.1608 1.62988 19.6417C1.62988 15.6389 2.8979 11.6361 5.2528 8.47105Z" fill="#8193B2"/>
<path d="M38.2221 43.7518C43.0224 46.9168 45.1962 51.385 45.1962 57.8082C41.1204 63.1142 34.1463 66 25.9041 66C12.0465 66 2.174 58.9252 0.0908203 46.7306H13.4051C15.1259 52.3159 19.6546 54.9224 25.8136 54.9224C33.15 55.0155 38.1315 50.9196 38.2221 43.7518ZM12.2276 21.5966C7.69895 18.8039 5.07234 13.7772 5.25348 8.378C9.14812 3.16502 15.8505 0 24.0021 0C38.2221 0 46.3736 7.72637 48.4568 18.5247H35.5954C34.1463 14.2426 30.6139 10.8914 24.1832 10.8914C17.2091 10.9845 12.4993 15.0804 12.2276 21.5966Z" fill="#8193B2" fill-opacity="0.8"/>
</svg>
