<svg width="66" height="66" viewBox="0 0 66 66" fill="none" xmlns="http://www.w3.org/2000/svg">
<g clip-path="url(#clip0)">
<path d="M45.9532 0.668258L45.6232 8.12076C45.6192 8.21502 45.6422 8.30847 45.6895 8.39009C45.7369 8.47171 45.8065 8.53811 45.8903 8.58146C45.9741 8.6248 46.0686 8.6433 46.1625 8.63476C46.2565 8.62622 46.3461 8.591 46.4207 8.53326L49.3357 6.33326L51.8107 8.25826C51.8834 8.30699 51.9676 8.33558 52.055 8.34114C52.1423 8.34669 52.2295 8.32901 52.3078 8.28988C52.386 8.25075 52.4525 8.19158 52.5004 8.1184C52.5484 8.04521 52.5761 7.96063 52.5807 7.87326L52.3057 0.283258L55.9632 0.00825831C56.4145 -0.0215169 56.8671 0.0417886 57.2929 0.194245C57.7187 0.346702 58.1086 0.585054 58.4384 0.894506C58.7682 1.20396 59.0309 1.5779 59.2102 1.99313C59.3894 2.40835 59.4814 2.85599 59.4804 3.30826V62.6973C59.481 63.1449 59.3905 63.5879 59.2144 63.9994C59.0384 64.4109 58.7804 64.7823 58.4563 65.091C58.1322 65.3997 57.7486 65.6393 57.329 65.795C56.9094 65.9508 56.4625 66.0196 56.0154 65.9973L11.7514 64.0173C10.919 63.983 10.1303 63.6351 9.54367 63.0434C8.95707 62.4517 8.61601 61.66 8.58894 60.8273L6.52644 6.38551C6.50041 5.95198 6.56021 5.51758 6.70242 5.10721C6.84462 4.69685 7.06643 4.31859 7.35513 3.99412C7.64382 3.66966 7.99373 3.40537 8.38478 3.21642C8.77583 3.02747 9.20033 2.91756 9.63394 2.89301L45.9257 0.610508L45.9532 0.668258ZM37.5107 25.575C37.5107 26.8675 46.2007 26.235 47.3832 25.355C47.3832 16.555 42.6532 11.9075 34.0209 11.9075C25.3584 11.9075 20.5487 16.6375 20.5487 23.705C20.5487 35.9425 37.0459 36.1625 37.0459 42.8423C37.0459 44.7673 36.1659 45.8673 34.1584 45.8673C31.5184 45.8673 30.4459 44.5198 30.5834 39.9273C30.5834 38.9373 20.5487 38.6073 20.2187 39.9273C19.4762 51.0098 26.3512 54.2273 34.2409 54.2273C41.9134 54.2273 47.9057 50.1298 47.9057 42.7323C47.9057 29.6148 31.1334 29.9723 31.1334 23.485C31.1334 20.8175 33.1134 20.46 34.2409 20.46C35.4784 20.46 37.6784 20.6525 37.5134 25.6025L37.5107 25.575Z" fill="#8193B2"/>
</g>
<defs>
<clipPath id="clip0">
<rect width="66" height="66" fill="white"/>
</clipPath>
</defs>
</svg>
