<svg width="76" height="76" viewBox="0 0 76 76" fill="none" xmlns="http://www.w3.org/2000/svg">
<path d="M51.3443 21.413L51.1068 22.6512C50.7395 24.9977 50.8725 25.669 51.8795 26.5398L52.8517 27.3442L51.8447 31.8345C51.243 34.5135 50.5052 36.7587 50.0365 37.4965C49.6343 38.133 49.1657 39.0703 49.0643 39.5738C48.8965 40.1755 48.3265 40.7803 47.4557 41.3155C46.6862 41.7525 45.1757 42.9242 44.1053 43.8647C43.2503 44.6342 42.6613 45.106 42.3415 45.3087L41.2965 46.1352C40.9608 46.6735 40.7708 47.1073 40.698 47.4367C40.6252 47.7755 40.6663 48.0003 40.774 48.165C40.8785 48.3233 41.059 48.4342 41.306 48.5038C41.5984 48.5724 41.8994 48.5969 42.199 48.5767C42.8769 48.5303 43.5478 48.4114 44.2003 48.222C44.422 48.1618 44.5962 48.1048 44.7482 48.0542C44.9825 47.766 45.524 47.2213 46.4835 46.2745C49.0295 43.7633 50.0017 42.389 48.9978 42.7595C48.6273 42.8925 48.7952 42.5568 49.4317 41.8855C50.7743 40.5777 51.5438 38.6017 53.1525 32.4045C54.4255 27.512 54.4255 27.4423 55.3628 27.4423C55.803 27.4423 57.0475 27.5183 57.0475 27.5183V21.413H54.1912H51.3443ZM63.5012 31.4355C63.2985 31.4355 62.9628 31.7395 62.7633 32.0752C62.396 32.6768 62.8298 33.0442 68.3588 36.4958C71.6427 38.5763 74.29 40.3497 74.2235 40.4858C74.157 40.584 71.4748 42.3288 68.2607 44.3397C62.4277 47.956 62.396 47.9908 62.9312 48.7287C63.6025 49.5995 62.9312 49.9003 70.5027 45.1757L76 41.6575V39.0102L69.8662 35.2228C66.5507 33.1455 63.669 31.4703 63.5012 31.4355ZM12.5653 31.806C12.3975 31.806 9.51583 33.516 6.20033 35.5585L0 39.3458V41.9932L6.1655 45.847C9.5855 47.956 12.4672 49.7008 12.6002 49.7008C12.7332 49.7008 13.0023 49.3968 13.2715 49.0295C13.6737 48.393 13.3348 48.1238 7.67283 44.5392C2.28 41.154 1.71 40.6853 2.24833 40.318C2.584 40.0837 5.13 38.5067 7.87867 36.7998C14.1455 32.946 13.8098 33.212 13.3063 32.4077C13.1068 32.0752 12.768 31.7743 12.5685 31.806H12.5653ZM40.0647 31.8788C39.14 31.8725 37.1513 33.2817 31.198 38.1425C30.9415 38.7537 30.9193 39.1748 31.0365 39.4472C31.1125 39.634 31.2518 39.7638 31.445 39.8588C31.635 39.9538 31.882 40.0108 32.1543 40.033C32.6958 40.0805 33.3355 39.995 33.8517 39.8937L34.2 39.8145C34.3192 39.6546 34.4758 39.5263 34.656 39.4408C35.0233 39.2382 36.5655 37.8322 38.1077 36.3248C40.8215 33.5762 41.458 32.3348 40.3528 31.9327C40.2622 31.8966 40.1654 31.8783 40.0678 31.8788H40.0647ZM47.0187 33.7883C46.2048 33.8105 44.7387 34.7542 42.2275 36.7587C40.9672 37.7815 40.1692 38.3325 39.7417 38.4465L38.0823 39.7575C37.4585 40.8975 37.3667 41.6037 37.5313 41.9932C37.5725 42.0892 37.6324 42.1762 37.7074 42.249C37.7824 42.3219 37.8711 42.3791 37.9683 42.4175C38.2103 42.513 38.4682 42.5614 38.7283 42.56C39.3499 42.5534 39.9677 42.4628 40.565 42.2908C40.8763 42.2073 41.1838 42.1101 41.4865 41.9995L41.5783 41.9615L41.7462 41.8728C42.0628 41.4643 42.7912 40.6948 43.7032 39.8082C46.5848 37.0278 48.0573 35.0518 47.7565 34.314C47.6203 33.9562 47.386 33.7757 47.0187 33.7883ZM39.3427 37.2083C39.1083 37.2337 38.5827 37.639 37.6358 38.4687C36.2678 39.6783 34.7763 40.375 34.2602 40.0647C34.1402 40.0918 34.0199 40.1171 33.8992 40.1407C33.3735 40.2452 32.718 40.3307 32.1322 40.2832C31.8561 40.2664 31.5856 40.1988 31.3342 40.0837C31.097 39.9752 30.9078 39.7837 30.8022 39.5453C30.685 39.2603 30.685 38.9057 30.818 38.4528L28.7597 40.1438L24.1015 43.9977V50.2455L39.3648 38.2217C39.3619 38.09 39.379 37.9587 39.4155 37.8322C39.5327 37.4078 39.5263 37.1925 39.3427 37.2115V37.2083ZM45.9103 39.2318C45.6792 39.2318 45.2928 39.558 44.6753 40.2135C43.8362 41.1097 42.5157 41.9773 41.8158 42.1547L41.7082 42.2117C41.5933 42.2591 41.4771 42.3035 41.3598 42.3447C41.1698 42.408 40.9228 42.484 40.6378 42.56C40.0678 42.7152 39.3585 42.8577 38.7252 42.8418C38.4266 42.8414 38.1309 42.7834 37.8543 42.6708C37.5937 42.5634 37.3848 42.3591 37.2717 42.1008C37.088 41.6607 37.1608 41.0432 37.563 40.166L24.0983 50.7712V54.587H30.0137L42.56 44.7323C42.8862 44.3713 43.377 43.8773 44.0388 43.2598C45.8122 41.6163 46.2143 41.0495 46.2143 40.2103C46.2143 39.558 46.1415 39.2287 45.9103 39.2287V39.2318ZM48.8965 45.4068L47.823 46.4772C47.2213 47.0472 46.1478 47.7502 45.4132 48.051L45.2675 48.1143L45.258 48.1302L45.2263 48.1618C45.1978 48.184 45.1852 48.1872 45.163 48.1967C44.8697 48.3077 44.5718 48.4059 44.27 48.4912C43.599 48.6865 42.9089 48.8086 42.2117 48.8553C41.882 48.8765 41.551 48.8476 41.23 48.7698C40.9514 48.7085 40.7054 48.546 40.5397 48.3138C40.3877 48.0795 40.3433 47.766 40.4288 47.3797C40.4968 47.1046 40.5979 46.8388 40.7297 46.588L30.6058 54.587H44.0705L45.6792 52.744C47.8895 50.1663 48.8965 48.3233 48.8965 46.7463V45.4068Z" fill="#8193B2"/>
</svg>
